<?xml version="1.0" encoding="UTF-8"?><svg id="Layer_2" xmlns="http://www.w3.org/2000/svg" width="982.4" height="1263.24" viewBox="0 0 982.4 1263.24"><defs><style>.cls-1{fill:#fff;}.cls-2{fill:#5f2c85;}.cls-3{fill:none;stroke:#12170f;stroke-width:2px;}</style></defs><g id="Layer_1-2"><path class="cls-2" d="M212.23,488.34h39.3c7.3,0,13.53-2.53,18.67-7.6,5.07-5.14,7.6-11.33,7.6-18.56v-39.42h-39.3c-7.14,0-13.33,2.61-18.56,7.84-5.14,5.15-7.73,11.29-7.73,18.43v39.3h.01ZM212.23,493.06v39.3c0,7.3,2.57,13.53,7.73,18.67,5.23,5.07,11.41,7.6,18.56,7.6h39.3v-39.3c0-7.14-2.54-13.33-7.6-18.56-5.14-5.14-11.37-7.73-18.67-7.73h-39.31ZM207.5,488.34v-39.3c0-7.07-2.53-13.21-7.6-18.43-5.23-5.23-11.41-7.84-18.56-7.84h-39.42v39.42c0,7.14,2.61,13.33,7.84,18.56,5.23,5.07,11.37,7.6,18.43,7.6h39.31ZM207.5,493.06h-39.3c-7.14,0-13.29,2.57-18.44,7.73-5.23,5.23-7.83,11.41-7.83,18.56v39.3h39.42c7.23,0,13.4-2.53,18.56-7.6,5.07-5.14,7.6-11.37,7.6-18.67v-39.3h-.01Z"/><path class="cls-1" d="M353.15,347.42h39.3c7.3,0,13.53-2.53,18.67-7.6,5.07-5.14,7.6-11.33,7.6-18.56v-39.42h-39.3c-7.14,0-13.33,2.61-18.56,7.84-5.14,5.15-7.73,11.29-7.73,18.43v39.3h.01ZM353.15,352.15v39.3c0,7.3,2.57,13.53,7.73,18.67,5.23,5.07,11.41,7.6,18.56,7.6h39.3v-39.3c0-7.14-2.54-13.33-7.6-18.56-5.14-5.14-11.37-7.73-18.67-7.73h-39.31ZM348.42,347.42v-39.3c0-7.07-2.53-13.21-7.6-18.43-5.23-5.23-11.41-7.84-18.56-7.84h-39.42v39.42c0,7.14,2.61,13.33,7.84,18.56,5.23,5.07,11.37,7.6,18.43,7.6h39.31ZM348.42,352.15h-39.3c-7.14,0-13.29,2.57-18.44,7.73-5.23,5.23-7.83,11.41-7.83,18.56v39.3h39.42c7.23,0,13.4-2.53,18.56-7.6,5.07-5.14,7.6-11.37,7.6-18.67v-39.3h-.01Z"/><path class="cls-3" d="M71.31,206.5h39.3c7.3,0,13.53-2.53,18.67-7.6,5.07-5.14,7.6-11.33,7.6-18.56v-39.42h-39.3c-7.14,0-13.33,2.61-18.56,7.84-5.14,5.15-7.73,11.29-7.73,18.43v39.3h.01ZM71.31,211.23v39.3c0,7.3,2.57,13.53,7.73,18.67,5.23,5.07,11.41,7.6,18.56,7.6h39.3v-39.3c0-7.14-2.54-13.33-7.6-18.56-5.14-5.14-11.37-7.73-18.67-7.73h-39.31ZM66.58,206.5v-39.3c0-7.07-2.53-13.21-7.6-18.43-5.23-5.23-11.41-7.84-18.56-7.84H1v39.42c0,7.14,2.61,13.33,7.84,18.56,5.23,5.07,11.37,7.6,18.43,7.6h39.31ZM66.58,211.23H27.28c-7.14,0-13.29,2.57-18.44,7.73-5.23,5.23-7.83,11.41-7.83,18.56v39.3h39.42c7.23,0,13.4-2.53,18.56-7.6,5.07-5.14,7.6-11.37,7.6-18.67v-39.3h-.01Z"/><path class="cls-1" d="M353.15,65.58h39.3c7.3,0,13.53-2.53,18.67-7.6,5.07-5.14,7.6-11.33,7.6-18.56V0h-39.3c-7.14,0-13.33,2.61-18.56,7.84-5.14,5.15-7.73,11.29-7.73,18.43v39.3h.01ZM353.15,70.31v39.3c0,7.3,2.57,13.53,7.73,18.67,5.23,5.07,11.41,7.6,18.56,7.6h39.3v-39.3c0-7.14-2.54-13.33-7.6-18.56-5.14-5.14-11.37-7.73-18.67-7.73h-39.31ZM348.42,65.58V26.28c0-7.07-2.53-13.21-7.6-18.43C335.59,2.62,329.41.01,322.26.01h-39.42v39.42c0,7.14,2.61,13.33,7.84,18.56,5.23,5.07,11.37,7.6,18.43,7.6h39.31ZM348.42,70.31h-39.3c-7.14,0-13.29,2.57-18.44,7.73-5.23,5.23-7.83,11.41-7.83,18.56v39.3h39.42c7.23,0,13.4-2.53,18.56-7.6,5.07-5.14,7.6-11.37,7.6-18.67v-39.3h-.01Z"/><path class="cls-2" d="M212.23,770.18h39.3c7.3,0,13.53-2.53,18.67-7.6,5.07-5.14,7.6-11.33,7.6-18.56v-39.42h-39.3c-7.14,0-13.33,2.61-18.56,7.84-5.14,5.15-7.73,11.29-7.73,18.43v39.3h.01ZM212.23,774.9v39.3c0,7.3,2.57,13.53,7.73,18.67,5.23,5.07,11.41,7.6,18.56,7.6h39.3v-39.3c0-7.14-2.54-13.33-7.6-18.56-5.14-5.14-11.37-7.73-18.67-7.73h-39.31ZM207.5,770.18v-39.3c0-7.07-2.53-13.21-7.6-18.43-5.23-5.23-11.41-7.84-18.56-7.84h-39.42v39.42c0,7.14,2.61,13.33,7.84,18.56,5.23,5.07,11.37,7.6,18.43,7.6h39.31ZM207.5,774.9h-39.3c-7.14,0-13.29,2.57-18.44,7.73-5.23,5.23-7.83,11.41-7.83,18.56v39.3h39.42c7.23,0,13.4-2.53,18.56-7.6,5.07-5.14,7.6-11.37,7.6-18.67v-39.3h-.01Z"/><path class="cls-1" d="M212.23,911.1h39.3c7.3,0,13.53-2.53,18.67-7.6,5.07-5.14,7.6-11.33,7.6-18.56v-39.42h-39.3c-7.14,0-13.33,2.61-18.56,7.84-5.14,5.15-7.73,11.29-7.73,18.43v39.3h.01ZM212.23,915.82v39.3c0,7.3,2.57,13.53,7.73,18.67,5.23,5.07,11.41,7.6,18.56,7.6h39.3v-39.3c0-7.14-2.54-13.33-7.6-18.56-5.14-5.14-11.37-7.73-18.67-7.73h-39.31ZM207.5,911.1v-39.3c0-7.07-2.53-13.21-7.6-18.43-5.23-5.23-11.41-7.84-18.56-7.84h-39.42v39.42c0,7.14,2.61,13.33,7.84,18.56,5.23,5.07,11.37,7.6,18.43,7.6h39.31ZM207.5,915.82h-39.3c-7.14,0-13.29,2.57-18.44,7.73-5.23,5.23-7.83,11.41-7.83,18.56v39.3h39.42c7.23,0,13.4-2.53,18.56-7.6,5.07-5.14,7.6-11.37,7.6-18.67v-39.3h-.01Z"/><path class="cls-3" d="M71.31,770.18h39.3c7.3,0,13.53-2.53,18.67-7.6,5.07-5.14,7.6-11.33,7.6-18.56v-39.42h-39.3c-7.14,0-13.33,2.61-18.56,7.84-5.14,5.15-7.73,11.29-7.73,18.43v39.3h.01ZM71.31,774.9v39.3c0,7.3,2.57,13.53,7.73,18.67,5.23,5.07,11.41,7.6,18.56,7.6h39.3v-39.3c0-7.14-2.54-13.33-7.6-18.56-5.14-5.14-11.37-7.73-18.67-7.73h-39.31ZM66.58,770.18v-39.3c0-7.07-2.53-13.21-7.6-18.43-5.23-5.23-11.41-7.84-18.56-7.84H1v39.42c0,7.14,2.61,13.33,7.84,18.56,5.23,5.07,11.37,7.6,18.43,7.6h39.31ZM66.58,774.9H27.28c-7.14,0-13.29,2.57-18.44,7.73-5.23,5.23-7.83,11.41-7.83,18.56v39.3h39.42c7.23,0,13.4-2.53,18.56-7.6,5.07-5.14,7.6-11.37,7.6-18.67v-39.3h-.01Z"/><path class="cls-2" d="M634.98,770.18h39.3c7.3,0,13.53-2.53,18.67-7.6,5.07-5.14,7.6-11.33,7.6-18.56v-39.42h-39.3c-7.14,0-13.33,2.61-18.56,7.84-5.14,5.15-7.73,11.29-7.73,18.43v39.3h.01ZM634.98,774.9v39.3c0,7.3,2.57,13.53,7.73,18.67,5.23,5.07,11.41,7.6,18.56,7.6h39.3v-39.3c0-7.14-2.54-13.33-7.6-18.56-5.14-5.14-11.37-7.73-18.67-7.73h-39.31ZM630.26,770.18v-39.3c0-7.07-2.53-13.21-7.6-18.43-5.23-5.23-11.41-7.84-18.56-7.84h-39.42v39.42c0,7.14,2.61,13.33,7.84,18.56,5.23,5.07,11.37,7.6,18.43,7.6h39.31ZM630.26,774.9h-39.3c-7.14,0-13.29,2.57-18.44,7.73-5.23,5.23-7.83,11.41-7.83,18.56v39.3h39.42c7.23,0,13.4-2.53,18.56-7.6,5.07-5.14,7.6-11.37,7.6-18.67v-39.3h-.01Z"/><path class="cls-1" d="M775.9,911.1h39.3c7.3,0,13.53-2.53,18.67-7.6,5.07-5.14,7.6-11.33,7.6-18.56v-39.42h-39.3c-7.14,0-13.33,2.61-18.56,7.84-5.14,5.15-7.73,11.29-7.73,18.43v39.3h.01ZM775.9,915.82v39.3c0,7.3,2.57,13.53,7.73,18.67,5.23,5.07,11.41,7.6,18.56,7.6h39.3v-39.3c0-7.14-2.54-13.33-7.6-18.56-5.14-5.14-11.37-7.73-18.67-7.73h-39.31ZM771.18,911.1v-39.3c0-7.07-2.53-13.21-7.6-18.43-5.23-5.23-11.41-7.84-18.56-7.84h-39.42v39.42c0,7.14,2.61,13.33,7.84,18.56,5.23,5.07,11.37,7.6,18.43,7.6h39.31ZM771.18,915.82h-39.3c-7.14,0-13.29,2.57-18.44,7.73-5.23,5.23-7.83,11.41-7.83,18.56v39.3h39.42c7.23,0,13.4-2.53,18.56-7.6,5.07-5.14,7.6-11.37,7.6-18.67v-39.3h-.01Z"/><path class="cls-1" d="M491.55,770.18h39.3c7.3,0,13.53-2.53,18.67-7.6,5.07-5.14,7.6-11.33,7.6-18.56v-39.42h-39.3c-7.14,0-13.33,2.61-18.56,7.84-5.14,5.15-7.73,11.29-7.73,18.43v39.3h.01ZM491.55,774.9v39.3c0,7.3,2.57,13.53,7.73,18.67,5.23,5.07,11.41,7.6,18.56,7.6h39.3v-39.3c0-7.14-2.54-13.33-7.6-18.56-5.14-5.14-11.37-7.73-18.67-7.73h-39.31ZM486.82,770.18v-39.3c0-7.07-2.53-13.21-7.6-18.43-5.23-5.23-11.41-7.84-18.56-7.84h-39.42v39.42c0,7.14,2.61,13.33,7.84,18.56,5.23,5.07,11.37,7.6,18.43,7.6h39.31ZM486.82,774.9h-39.3c-7.14,0-13.29,2.57-18.44,7.73-5.23,5.23-7.83,11.41-7.83,18.56v39.3h39.42c7.23,0,13.4-2.53,18.56-7.6,5.07-5.14,7.6-11.37,7.6-18.67v-39.3h-.01Z"/><path class="cls-2" d="M634.98,1052.01h39.3c7.3,0,13.53-2.53,18.67-7.6,5.07-5.14,7.6-11.33,7.6-18.56v-39.42h-39.3c-7.14,0-13.33,2.61-18.56,7.84-5.14,5.15-7.73,11.29-7.73,18.43v39.3h.01ZM634.98,1056.74v39.3c0,7.3,2.57,13.53,7.73,18.67,5.23,5.07,11.41,7.6,18.56,7.6h39.3v-39.3c0-7.14-2.54-13.33-7.6-18.56-5.14-5.14-11.37-7.73-18.67-7.73h-39.31ZM630.26,1052.01v-39.3c0-7.07-2.53-13.21-7.6-18.43-5.23-5.23-11.41-7.84-18.56-7.84h-39.42v39.42c0,7.14,2.61,13.33,7.84,18.56,5.23,5.07,11.37,7.6,18.43,7.6h39.31ZM630.26,1056.74h-39.3c-7.14,0-13.29,2.57-18.44,7.73-5.23,5.23-7.83,11.41-7.83,18.56v39.3h39.42c7.23,0,13.4-2.53,18.56-7.6,5.07-5.14,7.6-11.37,7.6-18.67v-39.3h-.01Z"/><path class="cls-1" d="M916.82,1192.93h39.3c7.3,0,13.53-2.53,18.67-7.6,5.07-5.14,7.6-11.33,7.6-18.56v-39.42h-39.3c-7.14,0-13.33,2.61-18.56,7.84-5.14,5.15-7.73,11.29-7.73,18.43v39.3h.01ZM916.82,1197.66v39.3c0,7.3,2.57,13.53,7.73,18.67,5.23,5.07,11.41,7.6,18.56,7.6h39.3v-39.3c0-7.14-2.54-13.33-7.6-18.56-5.14-5.14-11.37-7.73-18.67-7.73h-39.31ZM912.1,1192.93v-39.3c0-7.07-2.53-13.21-7.6-18.43-5.23-5.23-11.41-7.84-18.56-7.84h-39.42v39.42c0,7.14,2.61,13.33,7.84,18.56,5.23,5.07,11.37,7.6,18.43,7.6h39.31ZM912.1,1197.66h-39.3c-7.14,0-13.29,2.57-18.44,7.73-5.23,5.23-7.83,11.41-7.83,18.56v39.3h39.42c7.23,0,13.4-2.53,18.56-7.6,5.07-5.14,7.6-11.37,7.6-18.67v-39.3h-.01Z"/><path class="cls-3" d="M494.06,488.34h39.3c7.3,0,13.53-2.53,18.67-7.6,5.07-5.14,7.6-11.33,7.6-18.56v-39.42h-39.3c-7.14,0-13.33,2.61-18.56,7.84-5.14,5.15-7.73,11.29-7.73,18.43v39.3h.01ZM494.06,493.06v39.3c0,7.3,2.57,13.53,7.73,18.67,5.23,5.07,11.41,7.6,18.56,7.6h39.3v-39.3c0-7.14-2.54-13.33-7.6-18.56-5.14-5.14-11.37-7.73-18.67-7.73h-39.31ZM489.34,488.34v-39.3c0-7.07-2.53-13.21-7.6-18.43-5.23-5.23-11.41-7.84-18.56-7.84h-39.42v39.42c0,7.14,2.61,13.33,7.84,18.56,5.23,5.07,11.37,7.6,18.43,7.6h39.31ZM489.34,493.06h-39.3c-7.14,0-13.29,2.57-18.44,7.73-5.23,5.23-7.83,11.41-7.83,18.56v39.3h39.42c7.23,0,13.4-2.53,18.56-7.6,5.07-5.14,7.6-11.37,7.6-18.67v-39.3h-.01Z"/></g></svg>