<?xml version="1.0" encoding="UTF-8"?><svg id="Layer_2" xmlns="http://www.w3.org/2000/svg" width="841.48" height="1263.24" viewBox="0 0 841.48 1263.24"><defs><style>.cls-1{fill:#fff;}.cls-2{fill:#5f2c85;}.cls-3{fill:none;stroke:#12170f;stroke-width:2px;}</style></defs><g id="Layer_1-2"><path class="cls-2" d="M775.9,770.18h39.3c7.3,0,13.53-2.53,18.67-7.6,5.07-5.14,7.6-11.33,7.6-18.56v-39.42h-39.3c-7.14,0-13.33,2.61-18.56,7.84-5.14,5.15-7.73,11.29-7.73,18.43v39.3h.01ZM775.9,774.9v39.3c0,7.3,2.57,13.53,7.73,18.67,5.23,5.07,11.41,7.6,18.56,7.6h39.3v-39.3c0-7.14-2.54-13.33-7.6-18.56-5.14-5.14-11.37-7.73-18.67-7.73h-39.31ZM771.18,770.18v-39.3c0-7.07-2.53-13.21-7.6-18.43-5.23-5.23-11.41-7.84-18.56-7.84h-39.42v39.42c0,7.14,2.61,13.33,7.84,18.56,5.23,5.07,11.37,7.6,18.43,7.6h39.31ZM771.18,774.9h-39.3c-7.14,0-13.29,2.57-18.44,7.73-5.23,5.23-7.83,11.41-7.83,18.56v39.3h39.42c7.23,0,13.4-2.53,18.56-7.6,5.07-5.14,7.6-11.37,7.6-18.67v-39.3h-.01Z"/><path class="cls-2" d="M494.06,911.1h39.3c7.3,0,13.53-2.53,18.67-7.6,5.07-5.14,7.6-11.33,7.6-18.56v-39.42h-39.3c-7.14,0-13.33,2.61-18.56,7.84-5.14,5.15-7.73,11.29-7.73,18.43v39.3h.01ZM494.06,915.82v39.3c0,7.3,2.57,13.53,7.73,18.67,5.23,5.07,11.41,7.6,18.56,7.6h39.3v-39.3c0-7.14-2.54-13.33-7.6-18.56-5.14-5.14-11.37-7.73-18.67-7.73h-39.31ZM489.34,911.1v-39.3c0-7.07-2.53-13.21-7.6-18.43-5.23-5.23-11.41-7.84-18.56-7.84h-39.42v39.42c0,7.14,2.61,13.33,7.84,18.56,5.23,5.07,11.37,7.6,18.43,7.6h39.31ZM489.34,915.82h-39.3c-7.14,0-13.29,2.57-18.44,7.73-5.23,5.23-7.83,11.41-7.83,18.56v39.3h39.42c7.23,0,13.4-2.53,18.56-7.6,5.07-5.14,7.6-11.37,7.6-18.67v-39.3h-.01Z"/><path class="cls-3" d="M494.06,488.34h39.3c7.3,0,13.53-2.53,18.67-7.6,5.07-5.14,7.6-11.33,7.6-18.56v-39.42h-39.3c-7.14,0-13.33,2.61-18.56,7.84-5.14,5.15-7.73,11.29-7.73,18.43v39.3h.01ZM494.06,493.06v39.3c0,7.3,2.57,13.53,7.73,18.67,5.23,5.07,11.41,7.6,18.56,7.6h39.3v-39.3c0-7.14-2.54-13.33-7.6-18.56-5.14-5.14-11.37-7.73-18.67-7.73h-39.31ZM489.34,488.34v-39.3c0-7.07-2.53-13.21-7.6-18.43-5.23-5.23-11.41-7.84-18.56-7.84h-39.42v39.42c0,7.14,2.61,13.33,7.84,18.56,5.23,5.07,11.37,7.6,18.43,7.6h39.31ZM489.34,493.06h-39.3c-7.14,0-13.29,2.57-18.44,7.73-5.23,5.23-7.83,11.41-7.83,18.56v39.3h39.42c7.23,0,13.4-2.53,18.56-7.6,5.07-5.14,7.6-11.37,7.6-18.67v-39.3h-.01Z"/><path class="cls-1" d="M634.98,206.5h39.3c7.3,0,13.53-2.53,18.67-7.6,5.07-5.14,7.6-11.33,7.6-18.56v-39.42h-39.3c-7.14,0-13.33,2.61-18.56,7.84-5.14,5.15-7.73,11.29-7.73,18.43v39.3h.01ZM634.98,211.23v39.3c0,7.3,2.57,13.53,7.73,18.67,5.23,5.07,11.41,7.6,18.56,7.6h39.3v-39.3c0-7.14-2.54-13.33-7.6-18.56-5.14-5.14-11.37-7.73-18.67-7.73h-39.31ZM630.26,206.5v-39.3c0-7.07-2.53-13.21-7.6-18.43-5.23-5.23-11.41-7.84-18.56-7.84h-39.42v39.42c0,7.14,2.61,13.33,7.84,18.56,5.23,5.07,11.37,7.6,18.43,7.6h39.31ZM630.26,211.23h-39.3c-7.14,0-13.29,2.57-18.44,7.73-5.23,5.23-7.83,11.41-7.83,18.56v39.3h39.42c7.23,0,13.4-2.53,18.56-7.6,5.07-5.14,7.6-11.37,7.6-18.67v-39.3h-.01Z"/><path class="cls-1" d="M775.9,488.34h39.3c7.3,0,13.53-2.53,18.67-7.6,5.07-5.14,7.6-11.33,7.6-18.56v-39.42h-39.3c-7.14,0-13.33,2.61-18.56,7.84-5.14,5.15-7.73,11.29-7.73,18.43v39.3h.01ZM775.9,493.06v39.3c0,7.3,2.57,13.53,7.73,18.67,5.23,5.07,11.41,7.6,18.56,7.6h39.3v-39.3c0-7.14-2.54-13.33-7.6-18.56-5.14-5.14-11.37-7.73-18.67-7.73h-39.31ZM771.18,488.34v-39.3c0-7.07-2.53-13.21-7.6-18.43-5.23-5.23-11.41-7.84-18.56-7.84h-39.42v39.42c0,7.14,2.61,13.33,7.84,18.56,5.23,5.07,11.37,7.6,18.43,7.6h39.31ZM771.18,493.06h-39.3c-7.14,0-13.29,2.57-18.44,7.73-5.23,5.23-7.83,11.41-7.83,18.56v39.3h39.42c7.23,0,13.4-2.53,18.56-7.6,5.07-5.14,7.6-11.37,7.6-18.67v-39.3h-.01Z"/><path class="cls-2" d="M494.06,629.26h39.3c7.3,0,13.53-2.53,18.67-7.6,5.07-5.14,7.6-11.33,7.6-18.56v-39.42h-39.3c-7.14,0-13.33,2.61-18.56,7.84-5.14,5.15-7.73,11.29-7.73,18.43v39.3h.01ZM494.06,633.98v39.3c0,7.3,2.57,13.53,7.73,18.67,5.23,5.07,11.41,7.6,18.56,7.6h39.3v-39.3c0-7.14-2.54-13.33-7.6-18.56-5.14-5.14-11.37-7.73-18.67-7.73h-39.31ZM489.34,629.26v-39.3c0-7.07-2.53-13.21-7.6-18.43-5.23-5.23-11.41-7.84-18.56-7.84h-39.42v39.42c0,7.14,2.61,13.33,7.84,18.56,5.23,5.07,11.37,7.6,18.43,7.6h39.31ZM489.34,633.98h-39.3c-7.14,0-13.29,2.57-18.44,7.73-5.23,5.23-7.83,11.41-7.83,18.56v39.3h39.42c7.23,0,13.4-2.53,18.56-7.6,5.07-5.14,7.6-11.37,7.6-18.67v-39.3h-.01Z"/><path class="cls-1" d="M353.15,348.68h39.3c7.3,0,13.53-2.53,18.67-7.6,5.07-5.14,7.6-11.33,7.6-18.56v-39.42h-39.3c-7.14,0-13.33,2.61-18.56,7.84-5.14,5.15-7.73,11.29-7.73,18.43v39.3h.01ZM353.15,353.4v39.3c0,7.3,2.57,13.53,7.73,18.67,5.23,5.07,11.41,7.6,18.56,7.6h39.3v-39.3c0-7.14-2.54-13.33-7.6-18.56-5.14-5.14-11.37-7.73-18.67-7.73h-39.31ZM348.42,348.68v-39.3c0-7.07-2.53-13.21-7.6-18.43-5.23-5.23-11.41-7.84-18.56-7.84h-39.42v39.42c0,7.14,2.61,13.33,7.84,18.56,5.23,5.07,11.37,7.6,18.43,7.6h39.31ZM348.42,353.4h-39.3c-7.14,0-13.29,2.57-18.44,7.73-5.23,5.23-7.83,11.41-7.83,18.56v39.3h39.42c7.23,0,13.4-2.53,18.56-7.6,5.07-5.14,7.6-11.37,7.6-18.67v-39.3h-.01Z"/><path class="cls-3" d="M212.23,206.5h39.3c7.3,0,13.53-2.53,18.67-7.6,5.07-5.14,7.6-11.33,7.6-18.56v-39.42h-39.3c-7.14,0-13.33,2.61-18.56,7.84-5.14,5.15-7.73,11.29-7.73,18.43v39.3h.01ZM212.23,211.23v39.3c0,7.3,2.57,13.53,7.73,18.67,5.23,5.07,11.41,7.6,18.56,7.6h39.3v-39.3c0-7.14-2.54-13.33-7.6-18.56-5.14-5.14-11.37-7.73-18.67-7.73h-39.31ZM207.5,206.5v-39.3c0-7.07-2.53-13.21-7.6-18.43-5.23-5.23-11.41-7.84-18.56-7.84h-39.42v39.42c0,7.14,2.61,13.33,7.84,18.56,5.23,5.07,11.37,7.6,18.43,7.6h39.31ZM207.5,211.23h-39.3c-7.14,0-13.29,2.57-18.44,7.73-5.23,5.23-7.83,11.41-7.83,18.56v39.3h39.42c7.23,0,13.4-2.53,18.56-7.6,5.07-5.14,7.6-11.37,7.6-18.67v-39.3h-.01Z"/><path class="cls-3" d="M494.06,1052.01h39.3c7.3,0,13.53-2.53,18.67-7.6,5.07-5.14,7.6-11.33,7.6-18.56v-39.42h-39.3c-7.14,0-13.33,2.61-18.56,7.84-5.14,5.15-7.73,11.29-7.73,18.43v39.3h.01ZM494.06,1056.74v39.3c0,7.3,2.57,13.53,7.73,18.67,5.23,5.07,11.41,7.6,18.56,7.6h39.3v-39.3c0-7.14-2.54-13.33-7.6-18.56-5.14-5.14-11.37-7.73-18.67-7.73h-39.31ZM489.34,1052.01v-39.3c0-7.07-2.53-13.21-7.6-18.43-5.23-5.23-11.41-7.84-18.56-7.84h-39.42v39.42c0,7.14,2.61,13.33,7.84,18.56,5.23,5.07,11.37,7.6,18.43,7.6h39.31ZM489.34,1056.74h-39.3c-7.14,0-13.29,2.57-18.44,7.73-5.23,5.23-7.83,11.41-7.83,18.56v39.3h39.42c7.23,0,13.4-2.53,18.56-7.6,5.07-5.14,7.6-11.37,7.6-18.67v-39.3h-.01Z"/><path class="cls-1" d="M212.23,911.1h39.3c7.3,0,13.53-2.53,18.67-7.6,5.07-5.14,7.6-11.33,7.6-18.56v-39.42h-39.3c-7.14,0-13.33,2.61-18.56,7.84-5.14,5.15-7.73,11.29-7.73,18.43v39.3h.01ZM212.23,915.82v39.3c0,7.3,2.57,13.53,7.73,18.67,5.23,5.07,11.41,7.6,18.56,7.6h39.3v-39.3c0-7.14-2.54-13.33-7.6-18.56-5.14-5.14-11.37-7.73-18.67-7.73h-39.31ZM207.5,911.1v-39.3c0-7.07-2.53-13.21-7.6-18.43-5.23-5.23-11.41-7.84-18.56-7.84h-39.42v39.42c0,7.14,2.61,13.33,7.84,18.56,5.23,5.07,11.37,7.6,18.43,7.6h39.31ZM207.5,915.82h-39.3c-7.14,0-13.29,2.57-18.44,7.73-5.23,5.23-7.83,11.41-7.83,18.56v39.3h39.42c7.23,0,13.4-2.53,18.56-7.6,5.07-5.14,7.6-11.37,7.6-18.67v-39.3h-.01Z"/><path class="cls-1" d="M212.23,1192.93h39.3c7.3,0,13.53-2.53,18.67-7.6,5.07-5.14,7.6-11.33,7.6-18.56v-39.42h-39.3c-7.14,0-13.33,2.61-18.56,7.84-5.14,5.15-7.73,11.29-7.73,18.43v39.3h.01ZM212.23,1197.66v39.3c0,7.3,2.57,13.53,7.73,18.67,5.23,5.07,11.41,7.6,18.56,7.6h39.3v-39.3c0-7.14-2.54-13.33-7.6-18.56-5.14-5.14-11.37-7.73-18.67-7.73h-39.31ZM207.5,1192.93v-39.3c0-7.07-2.53-13.21-7.6-18.43-5.23-5.23-11.41-7.84-18.56-7.84h-39.42v39.42c0,7.14,2.61,13.33,7.84,18.56,5.23,5.07,11.37,7.6,18.43,7.6h39.31ZM207.5,1197.66h-39.3c-7.14,0-13.29,2.57-18.44,7.73-5.23,5.23-7.83,11.41-7.83,18.56v39.3h39.42c7.23,0,13.4-2.53,18.56-7.6,5.07-5.14,7.6-11.37,7.6-18.67v-39.3h-.01Z"/><path class="cls-3" d="M71.31,1052.01h39.3c7.3,0,13.53-2.53,18.67-7.6,5.07-5.14,7.6-11.33,7.6-18.56v-39.42h-39.3c-7.14,0-13.33,2.61-18.56,7.84-5.14,5.15-7.73,11.29-7.73,18.43v39.3h.01ZM71.31,1056.74v39.3c0,7.3,2.57,13.53,7.73,18.67,5.23,5.07,11.41,7.6,18.56,7.6h39.3v-39.3c0-7.14-2.54-13.33-7.6-18.56-5.14-5.14-11.37-7.73-18.67-7.73h-39.31ZM66.58,1052.01v-39.3c0-7.07-2.53-13.21-7.6-18.43-5.23-5.23-11.41-7.84-18.56-7.84H1v39.42c0,7.14,2.61,13.33,7.84,18.56,5.23,5.07,11.37,7.6,18.43,7.6h39.31ZM66.58,1056.74H27.28c-7.14,0-13.29,2.57-18.44,7.73-5.23,5.23-7.83,11.41-7.83,18.56v39.3h39.42c7.23,0,13.4-2.53,18.56-7.6,5.07-5.14,7.6-11.37,7.6-18.67v-39.3h-.01Z"/><path class="cls-1" d="M71.31,65.58h39.3c7.3,0,13.53-2.53,18.67-7.6,5.07-5.14,7.6-11.33,7.6-18.56V0h-39.3c-7.14,0-13.33,2.61-18.56,7.84-5.14,5.15-7.73,11.29-7.73,18.43v39.3h.01ZM71.31,70.31v39.3c0,7.3,2.57,13.53,7.73,18.67,5.23,5.07,11.41,7.6,18.56,7.6h39.3v-39.3c0-7.14-2.54-13.33-7.6-18.56-5.14-5.14-11.37-7.73-18.67-7.73h-39.31ZM66.58,65.58V26.28c0-7.07-2.53-13.21-7.6-18.43C53.75,2.62,47.57.01,40.42.01H1v39.42c0,7.14,2.61,13.33,7.84,18.56,5.23,5.07,11.37,7.6,18.43,7.6h39.31ZM66.58,70.31H27.28c-7.14,0-13.29,2.57-18.44,7.73-5.23,5.23-7.83,11.41-7.83,18.56v39.3h39.42c7.23,0,13.4-2.53,18.56-7.6,5.07-5.14,7.6-11.37,7.6-18.67v-39.3h-.01Z"/></g></svg>