<?xml version="1.0" encoding="UTF-8"?><svg id="Layer_2" xmlns="http://www.w3.org/2000/svg" width="262" height="262" viewBox="0 0 262 262"><defs><style>.cls-1{fill:#5f2c85;}</style></defs><g id="Layer_1-2"><path class="cls-1" d="M98.69,173.18c-10.9,10.58-9.59,31.91,0,43.42,2.75,2.83,29.22,41.21,32.31,45.4,3.23-4.38,29.47-42.44,32.3-45.4,9.59-11.51,10.9-32.83,0-43.42l-32.3-39.18-32.31,39.18Z"/><path class="cls-1" d="M131,128l32.3-39.18c10.9-10.6,9.59-31.91,0-43.42-2.84-2.96-29.07-41.02-32.3-45.4-3.09,4.19-29.56,42.57-32.31,45.4-9.59,11.51-10.9,32.84,0,43.42l32.31,39.18Z"/><path class="cls-1" d="M173.18,163.31c10.58,10.9,31.91,9.59,43.42,0,2.83-2.75,41.21-29.22,45.4-32.31-4.38-3.23-42.44-29.47-45.4-32.3-11.51-9.59-32.83-10.9-43.42,0l-39.18,32.3,39.18,32.31Z"/><path class="cls-1" d="M128,131l-39.18-32.3c-10.6-10.9-31.91-9.59-43.42,0-2.96,2.84-41.02,29.07-45.4,32.3,4.19,3.09,42.57,29.56,45.4,32.31,11.51,9.59,32.84,10.9,43.42,0l39.18-32.31Z"/></g></svg>