<?xml version="1.0" encoding="UTF-8"?><svg id="Layer_2" xmlns="http://www.w3.org/2000/svg" width="1825" height="1541.49" viewBox="0 0 1825 1541.49"><defs><style>.cls-1{fill:#b796ff;}.cls-2{fill:#5f2c85;}.cls-3{fill:none;stroke:#12170f;stroke-width:2px;}</style></defs><g id="Layer_1-2"><path class="cls-2" d="M1054.6,767.89h39.18c7.28,0,13.49-2.53,18.61-7.58,5.05-5.13,7.58-11.3,7.58-18.5v-39.3h-39.18c-7.12,0-13.29,2.6-18.5,7.81-5.13,5.14-7.7,11.26-7.7,18.38v39.18h.01ZM1054.6,772.6v39.18c0,7.28,2.56,13.49,7.7,18.61,5.21,5.06,11.37,7.58,18.5,7.58h39.18v-39.18c0-7.12-2.53-13.29-7.58-18.5-5.13-5.13-11.33-7.7-18.61-7.7h-39.19ZM1049.89,767.89v-39.18c0-7.05-2.53-13.17-7.58-18.38-5.21-5.21-11.37-7.81-18.5-7.81h-39.3v39.3c0,7.12,2.6,13.29,7.81,18.5,5.21,5.06,11.33,7.58,18.38,7.58h39.19ZM1049.89,772.6h-39.18c-7.12,0-13.25,2.56-18.38,7.7-5.21,5.21-7.81,11.37-7.81,18.5v39.18h39.3c7.2,0,13.36-2.53,18.5-7.58,5.05-5.13,7.58-11.33,7.58-18.61v-39.18h-.01Z"/><path class="cls-2" d="M1195.1,767.89h39.18c7.28,0,13.49-2.53,18.61-7.58,5.05-5.13,7.58-11.3,7.58-18.5v-39.3h-39.18c-7.12,0-13.29,2.6-18.5,7.81-5.13,5.14-7.7,11.26-7.7,18.38v39.18h.01ZM1195.1,772.6v39.18c0,7.28,2.56,13.49,7.7,18.61,5.21,5.06,11.37,7.58,18.5,7.58h39.18v-39.18c0-7.12-2.53-13.29-7.58-18.5-5.13-5.13-11.33-7.7-18.61-7.7h-39.19ZM1190.39,767.89v-39.18c0-7.05-2.53-13.17-7.58-18.38-5.21-5.21-11.37-7.81-18.5-7.81h-39.3v39.3c0,7.12,2.6,13.29,7.81,18.5,5.21,5.06,11.33,7.58,18.38,7.58h39.19ZM1190.39,772.6h-39.18c-7.12,0-13.25,2.56-18.38,7.7-5.21,5.21-7.81,11.37-7.81,18.5v39.18h39.3c7.2,0,13.36-2.53,18.5-7.58,5.05-5.13,7.58-11.33,7.58-18.61v-39.18h-.01Z"/><path class="cls-1" d="M1616.61,767.89h39.18c7.28,0,13.49-2.53,18.61-7.58,5.05-5.13,7.58-11.3,7.58-18.5v-39.3h-39.18c-7.12,0-13.29,2.6-18.5,7.81-5.13,5.14-7.7,11.26-7.7,18.38v39.18h.01ZM1616.61,772.6v39.18c0,7.28,2.56,13.49,7.7,18.61,5.21,5.06,11.37,7.58,18.5,7.58h39.18v-39.18c0-7.12-2.53-13.29-7.58-18.5-5.13-5.13-11.33-7.7-18.61-7.7h-39.19ZM1611.89,767.89v-39.18c0-7.05-2.53-13.17-7.58-18.38-5.21-5.21-11.37-7.81-18.5-7.81h-39.3v39.3c0,7.12,2.6,13.29,7.81,18.5,5.21,5.06,11.33,7.58,18.38,7.58h39.19ZM1611.89,772.6h-39.18c-7.12,0-13.25,2.56-18.38,7.7-5.21,5.21-7.81,11.37-7.81,18.5v39.18h39.3c7.2,0,13.36-2.53,18.5-7.58,5.05-5.13,7.58-11.33,7.58-18.61v-39.18h-.01Z"/><path class="cls-1" d="M1757.11,767.89h39.18c7.28,0,13.49-2.53,18.61-7.58,5.05-5.13,7.58-11.3,7.58-18.5v-39.3h-39.18c-7.12,0-13.29,2.6-18.5,7.81-5.13,5.14-7.7,11.26-7.7,18.38v39.18h.01ZM1757.11,772.6v39.18c0,7.28,2.56,13.49,7.7,18.61,5.21,5.06,11.37,7.58,18.5,7.58h39.18v-39.18c0-7.12-2.53-13.29-7.58-18.5-5.13-5.13-11.33-7.7-18.61-7.7h-39.19ZM1752.39,767.89v-39.18c0-7.05-2.53-13.17-7.58-18.38-5.21-5.21-11.37-7.81-18.5-7.81h-39.3v39.3c0,7.12,2.6,13.29,7.81,18.5,5.21,5.06,11.33,7.58,18.38,7.58h39.19ZM1752.39,772.6h-39.18c-7.12,0-13.25,2.56-18.38,7.7-5.21,5.21-7.81,11.37-7.81,18.5v39.18h39.3c7.2,0,13.36-2.53,18.5-7.58,5.05-5.13,7.58-11.33,7.58-18.61v-39.18h-.01Z"/><path class="cls-3" d="M1476.1,767.89h39.18c7.28,0,13.49-2.53,18.61-7.58,5.05-5.13,7.58-11.3,7.58-18.5v-39.3h-39.18c-7.12,0-13.29,2.6-18.5,7.81-5.13,5.14-7.7,11.26-7.7,18.38v39.18h.01ZM1476.1,772.6v39.18c0,7.28,2.56,13.49,7.7,18.61,5.21,5.06,11.37,7.58,18.5,7.58h39.18v-39.18c0-7.12-2.53-13.29-7.58-18.5-5.13-5.13-11.33-7.7-18.61-7.7h-39.19ZM1471.39,767.89v-39.18c0-7.05-2.53-13.17-7.58-18.38-5.21-5.21-11.37-7.81-18.5-7.81h-39.3v39.3c0,7.12,2.6,13.29,7.81,18.5,5.21,5.06,11.33,7.58,18.38,7.58h39.19ZM1471.39,772.6h-39.18c-7.12,0-13.25,2.56-18.38,7.7-5.21,5.21-7.81,11.37-7.81,18.5v39.18h39.3c7.2,0,13.36-2.53,18.5-7.58,5.05-5.13,7.58-11.33,7.58-18.61v-39.18h-.01Z"/><path class="cls-3" d="M1476.1,908.39h39.18c7.28,0,13.49-2.53,18.61-7.58,5.05-5.13,7.58-11.3,7.58-18.5v-39.3h-39.18c-7.12,0-13.29,2.6-18.5,7.81-5.13,5.14-7.7,11.26-7.7,18.38v39.18h.01ZM1476.1,913.1v39.18c0,7.28,2.56,13.49,7.7,18.61,5.21,5.06,11.37,7.58,18.5,7.58h39.18v-39.18c0-7.12-2.53-13.29-7.58-18.5-5.13-5.13-11.33-7.7-18.61-7.7h-39.19ZM1471.39,908.39v-39.18c0-7.05-2.53-13.17-7.58-18.38-5.21-5.21-11.37-7.81-18.5-7.81h-39.3v39.3c0,7.12,2.6,13.29,7.81,18.5,5.21,5.06,11.33,7.58,18.38,7.58h39.19ZM1471.39,913.1h-39.18c-7.12,0-13.25,2.56-18.38,7.7-5.21,5.21-7.81,11.37-7.81,18.5v39.18h39.3c7.2,0,13.36-2.53,18.5-7.58,5.05-5.13,7.58-11.33,7.58-18.61v-39.18h-.01Z"/><path class="cls-2" d="M1335.6,908.39h39.18c7.28,0,13.49-2.53,18.61-7.58,5.05-5.13,7.58-11.3,7.58-18.5v-39.3h-39.18c-7.12,0-13.29,2.6-18.5,7.81-5.13,5.14-7.7,11.26-7.7,18.38v39.18h.01ZM1335.6,913.1v39.18c0,7.28,2.56,13.49,7.7,18.61,5.21,5.06,11.37,7.58,18.5,7.58h39.18v-39.18c0-7.12-2.53-13.29-7.58-18.5-5.13-5.13-11.33-7.7-18.61-7.7h-39.19ZM1330.89,908.39v-39.18c0-7.05-2.53-13.17-7.58-18.38-5.21-5.21-11.37-7.81-18.5-7.81h-39.3v39.3c0,7.12,2.6,13.29,7.81,18.5,5.21,5.06,11.33,7.58,18.38,7.58h39.19ZM1330.89,913.1h-39.18c-7.12,0-13.25,2.56-18.38,7.7-5.21,5.21-7.81,11.37-7.81,18.5v39.18h39.3c7.2,0,13.36-2.53,18.5-7.58,5.05-5.13,7.58-11.33,7.58-18.61v-39.18h-.01Z"/><path class="cls-2" d="M1616.61,1048.89h39.18c7.28,0,13.49-2.53,18.61-7.58,5.05-5.13,7.58-11.3,7.58-18.5v-39.3h-39.18c-7.12,0-13.29,2.6-18.5,7.81-5.13,5.14-7.7,11.26-7.7,18.38v39.18h.01ZM1616.61,1053.6v39.18c0,7.28,2.56,13.49,7.7,18.61,5.21,5.06,11.37,7.58,18.5,7.58h39.18v-39.18c0-7.12-2.53-13.29-7.58-18.5-5.13-5.13-11.33-7.7-18.61-7.7h-39.19ZM1611.89,1048.89v-39.18c0-7.05-2.53-13.17-7.58-18.38-5.21-5.21-11.37-7.81-18.5-7.81h-39.3v39.3c0,7.12,2.6,13.29,7.81,18.5,5.21,5.06,11.33,7.58,18.38,7.58h39.19ZM1611.89,1053.6h-39.18c-7.12,0-13.25,2.56-18.38,7.7-5.21,5.21-7.81,11.37-7.81,18.5v39.18h39.3c7.2,0,13.36-2.53,18.5-7.58,5.05-5.13,7.58-11.33,7.58-18.61v-39.18h-.01Z"/><path class="cls-2" d="M1476.1,1048.89h39.18c7.28,0,13.49-2.53,18.61-7.58,5.05-5.13,7.58-11.3,7.58-18.5v-39.3h-39.18c-7.12,0-13.29,2.6-18.5,7.81-5.13,5.14-7.7,11.26-7.7,18.38v39.18h.01ZM1476.1,1053.6v39.18c0,7.28,2.56,13.49,7.7,18.61,5.21,5.06,11.37,7.58,18.5,7.58h39.18v-39.18c0-7.12-2.53-13.29-7.58-18.5-5.13-5.13-11.33-7.7-18.61-7.7h-39.19ZM1471.39,1048.89v-39.18c0-7.05-2.53-13.17-7.58-18.38-5.21-5.21-11.37-7.81-18.5-7.81h-39.3v39.3c0,7.12,2.6,13.29,7.81,18.5,5.21,5.06,11.33,7.58,18.38,7.58h39.19ZM1471.39,1053.6h-39.18c-7.12,0-13.25,2.56-18.38,7.7-5.21,5.21-7.81,11.37-7.81,18.5v39.18h39.3c7.2,0,13.36-2.53,18.5-7.58,5.05-5.13,7.58-11.33,7.58-18.61v-39.18h-.01Z"/><path class="cls-2" d="M633.1,767.89h39.18c7.28,0,13.49-2.53,18.61-7.58,5.05-5.13,7.58-11.3,7.58-18.5v-39.3h-39.18c-7.12,0-13.29,2.6-18.5,7.81-5.13,5.14-7.7,11.26-7.7,18.38v39.18h.01ZM633.1,772.6v39.18c0,7.28,2.56,13.49,7.7,18.61,5.21,5.06,11.37,7.58,18.5,7.58h39.18v-39.18c0-7.12-2.53-13.29-7.58-18.5-5.13-5.13-11.33-7.7-18.61-7.7h-39.19ZM628.39,767.89v-39.18c0-7.05-2.53-13.17-7.58-18.38-5.21-5.21-11.37-7.81-18.5-7.81h-39.3v39.3c0,7.12,2.6,13.29,7.81,18.5,5.21,5.06,11.33,7.58,18.38,7.58h39.19ZM628.39,772.6h-39.18c-7.12,0-13.25,2.56-18.38,7.7-5.21,5.21-7.81,11.37-7.81,18.5v39.18h39.3c7.2,0,13.36-2.53,18.5-7.58,5.05-5.13,7.58-11.33,7.58-18.61v-39.18h-.01Z"/><path class="cls-2" d="M633.1,1048.89h39.18c7.28,0,13.49-2.53,18.61-7.58,5.05-5.13,7.58-11.3,7.58-18.5v-39.3h-39.18c-7.12,0-13.29,2.6-18.5,7.81-5.13,5.14-7.7,11.26-7.7,18.38v39.18h.01ZM633.1,1053.6v39.18c0,7.28,2.56,13.49,7.7,18.61,5.21,5.06,11.37,7.58,18.5,7.58h39.18v-39.18c0-7.12-2.53-13.29-7.58-18.5-5.13-5.13-11.33-7.7-18.61-7.7h-39.19ZM628.39,1048.89v-39.18c0-7.05-2.53-13.17-7.58-18.38-5.21-5.21-11.37-7.81-18.5-7.81h-39.3v39.3c0,7.12,2.6,13.29,7.81,18.5,5.21,5.06,11.33,7.58,18.38,7.58h39.19ZM628.39,1053.6h-39.18c-7.12,0-13.25,2.56-18.38,7.7-5.21,5.21-7.81,11.37-7.81,18.5v39.18h39.3c7.2,0,13.36-2.53,18.5-7.58,5.05-5.13,7.58-11.33,7.58-18.61v-39.18h-.01Z"/><path class="cls-1" d="M773.6,767.89h39.18c7.28,0,13.49-2.53,18.61-7.58,5.05-5.13,7.58-11.3,7.58-18.5v-39.3h-39.18c-7.12,0-13.29,2.6-18.5,7.81-5.13,5.14-7.7,11.26-7.7,18.38v39.18h.01ZM773.6,772.6v39.18c0,7.28,2.56,13.49,7.7,18.61,5.21,5.06,11.37,7.58,18.5,7.58h39.18v-39.18c0-7.12-2.53-13.29-7.58-18.5-5.13-5.13-11.33-7.7-18.61-7.7h-39.19ZM768.89,767.89v-39.18c0-7.05-2.53-13.17-7.58-18.38-5.21-5.21-11.37-7.81-18.5-7.81h-39.3v39.3c0,7.12,2.6,13.29,7.81,18.5,5.21,5.06,11.33,7.58,18.38,7.58h39.19ZM768.89,772.6h-39.18c-7.12,0-13.25,2.56-18.38,7.7-5.21,5.21-7.81,11.37-7.81,18.5v39.18h39.3c7.2,0,13.36-2.53,18.5-7.58,5.05-5.13,7.58-11.33,7.58-18.61v-39.18h-.01Z"/><path class="cls-2" d="M492.6,767.89h39.18c7.28,0,13.49-2.53,18.61-7.58,5.05-5.13,7.58-11.3,7.58-18.5v-39.3h-39.18c-7.12,0-13.29,2.6-18.5,7.81-5.13,5.14-7.7,11.26-7.7,18.38v39.18h.01ZM492.6,772.6v39.18c0,7.28,2.56,13.49,7.7,18.61,5.21,5.06,11.37,7.58,18.5,7.58h39.18v-39.18c0-7.12-2.53-13.29-7.58-18.5-5.13-5.13-11.33-7.7-18.61-7.7h-39.19ZM487.89,767.89v-39.18c0-7.05-2.53-13.17-7.58-18.38-5.21-5.21-11.37-7.81-18.5-7.81h-39.3v39.3c0,7.12,2.6,13.29,7.81,18.5,5.21,5.06,11.33,7.58,18.38,7.58h39.19ZM487.89,772.6h-39.18c-7.12,0-13.25,2.56-18.38,7.7-5.21,5.21-7.81,11.37-7.81,18.5v39.18h39.3c7.2,0,13.36-2.53,18.5-7.58,5.05-5.13,7.58-11.33,7.58-18.61v-39.18h-.01Z"/><path class="cls-2" d="M211.6,767.89h39.18c7.28,0,13.49-2.53,18.61-7.58,5.05-5.13,7.58-11.3,7.58-18.5v-39.3h-39.18c-7.12,0-13.29,2.6-18.5,7.81-5.13,5.14-7.7,11.26-7.7,18.38v39.18h.01ZM211.6,772.6v39.18c0,7.28,2.56,13.49,7.7,18.61,5.21,5.06,11.37,7.58,18.5,7.58h39.18v-39.18c0-7.12-2.53-13.29-7.58-18.5-5.13-5.13-11.33-7.7-18.61-7.7h-39.19ZM206.89,767.89v-39.18c0-7.05-2.53-13.17-7.58-18.38-5.21-5.21-11.37-7.81-18.5-7.81h-39.3v39.3c0,7.12,2.6,13.29,7.81,18.5,5.21,5.06,11.33,7.58,18.38,7.58h39.19ZM206.89,772.6h-39.18c-7.12,0-13.25,2.56-18.38,7.7-5.21,5.21-7.81,11.37-7.81,18.5v39.18h39.3c7.2,0,13.36-2.53,18.5-7.58,5.05-5.13,7.58-11.33,7.58-18.61v-39.18h-.01Z"/><path class="cls-2" d="M211.6,627.39h39.18c7.28,0,13.49-2.53,18.61-7.58,5.05-5.13,7.58-11.3,7.58-18.5v-39.3h-39.18c-7.12,0-13.29,2.6-18.5,7.81-5.13,5.14-7.7,11.26-7.7,18.38v39.18h.01ZM211.6,632.1v39.18c0,7.28,2.56,13.49,7.7,18.61,5.21,5.06,11.37,7.58,18.5,7.58h39.18v-39.18c0-7.12-2.53-13.29-7.58-18.5-5.13-5.13-11.33-7.7-18.61-7.7h-39.19ZM206.89,627.39v-39.18c0-7.05-2.53-13.17-7.58-18.38-5.21-5.21-11.37-7.81-18.5-7.81h-39.3v39.3c0,7.12,2.6,13.29,7.81,18.5,5.21,5.06,11.33,7.58,18.38,7.58h39.19ZM206.89,632.1h-39.18c-7.12,0-13.25,2.56-18.38,7.7-5.21,5.21-7.81,11.37-7.81,18.5v39.18h39.3c7.2,0,13.36-2.53,18.5-7.58,5.05-5.13,7.58-11.33,7.58-18.61v-39.18h-.01Z"/><path class="cls-2" d="M211.6,486.89h39.18c7.28,0,13.49-2.53,18.61-7.58,5.05-5.13,7.58-11.3,7.58-18.5v-39.3h-39.18c-7.12,0-13.29,2.6-18.5,7.81-5.13,5.14-7.7,11.26-7.7,18.38v39.18h.01ZM211.6,491.6v39.18c0,7.28,2.56,13.49,7.7,18.61,5.21,5.06,11.37,7.58,18.5,7.58h39.18v-39.18c0-7.12-2.53-13.29-7.58-18.5-5.13-5.13-11.33-7.7-18.61-7.7h-39.19ZM206.89,486.89v-39.18c0-7.05-2.53-13.17-7.58-18.38-5.21-5.21-11.37-7.81-18.5-7.81h-39.3v39.3c0,7.12,2.6,13.29,7.81,18.5,5.21,5.06,11.33,7.58,18.38,7.58h39.19ZM206.89,491.6h-39.18c-7.12,0-13.25,2.56-18.38,7.7-5.21,5.21-7.81,11.37-7.81,18.5v39.18h39.3c7.2,0,13.36-2.53,18.5-7.58,5.05-5.13,7.58-11.33,7.58-18.61v-39.18h-.01Z"/><path class="cls-3" d="M71.1,767.89h39.18c7.28,0,13.49-2.53,18.61-7.58,5.05-5.13,7.58-11.3,7.58-18.5v-39.3h-39.18c-7.12,0-13.29,2.6-18.5,7.81-5.13,5.14-7.7,11.26-7.7,18.38v39.18h.01ZM71.1,772.6v39.18c0,7.28,2.56,13.49,7.7,18.61,5.21,5.06,11.37,7.58,18.5,7.58h39.18v-39.18c0-7.12-2.53-13.29-7.58-18.5-5.13-5.13-11.33-7.7-18.61-7.7h-39.19ZM66.38,767.89v-39.18c0-7.05-2.53-13.17-7.58-18.38-5.21-5.21-11.37-7.81-18.5-7.81H1v39.3c0,7.12,2.6,13.29,7.81,18.5,5.21,5.06,11.33,7.58,18.38,7.58h39.19ZM66.38,772.6H27.21c-7.12,0-13.25,2.56-18.38,7.7-5.21,5.21-7.81,11.37-7.81,18.5v39.18h39.3c7.2,0,13.36-2.53,18.5-7.58,5.05-5.13,7.58-11.33,7.58-18.61v-39.18h-.01Z"/><path class="cls-2" d="M914.1,908.39h39.18c7.28,0,13.49-2.53,18.61-7.58,5.05-5.13,7.58-11.3,7.58-18.5v-39.3h-39.18c-7.12,0-13.29,2.6-18.5,7.81-5.13,5.14-7.7,11.26-7.7,18.38v39.18h.01ZM914.1,913.1v39.18c0,7.28,2.56,13.49,7.7,18.61,5.21,5.06,11.37,7.58,18.5,7.58h39.18v-39.18c0-7.12-2.53-13.29-7.58-18.5-5.13-5.13-11.33-7.7-18.61-7.7h-39.19ZM909.39,908.39v-39.18c0-7.05-2.53-13.17-7.58-18.38-5.21-5.21-11.37-7.81-18.5-7.81h-39.3v39.3c0,7.12,2.6,13.29,7.81,18.5,5.21,5.06,11.33,7.58,18.38,7.58h39.19ZM909.39,913.1h-39.18c-7.12,0-13.25,2.56-18.38,7.7-5.21,5.21-7.81,11.37-7.81,18.5v39.18h39.3c7.2,0,13.36-2.53,18.5-7.58,5.05-5.13,7.58-11.33,7.58-18.61v-39.18h-.01Z"/><path class="cls-3" d="M914.1,1048.89h39.18c7.28,0,13.49-2.53,18.61-7.58,5.05-5.13,7.58-11.3,7.58-18.5v-39.3h-39.18c-7.12,0-13.29,2.6-18.5,7.81-5.13,5.14-7.7,11.26-7.7,18.38v39.18h.01ZM914.1,1053.6v39.18c0,7.28,2.56,13.49,7.7,18.61,5.21,5.06,11.37,7.58,18.5,7.58h39.18v-39.18c0-7.12-2.53-13.29-7.58-18.5-5.13-5.13-11.33-7.7-18.61-7.7h-39.19ZM909.39,1048.89v-39.18c0-7.05-2.53-13.17-7.58-18.38-5.21-5.21-11.37-7.81-18.5-7.81h-39.3v39.3c0,7.12,2.6,13.29,7.81,18.5,5.21,5.06,11.33,7.58,18.38,7.58h39.19ZM909.39,1053.6h-39.18c-7.12,0-13.25,2.56-18.38,7.7-5.21,5.21-7.81,11.37-7.81,18.5v39.18h39.3c7.2,0,13.36-2.53,18.5-7.58,5.05-5.13,7.58-11.33,7.58-18.61v-39.18h-.01Z"/><path class="cls-2" d="M914.1,1189.39h39.18c7.28,0,13.49-2.53,18.61-7.58,5.05-5.13,7.58-11.3,7.58-18.5v-39.3h-39.18c-7.12,0-13.29,2.6-18.5,7.81-5.13,5.14-7.7,11.26-7.7,18.38v39.18h.01ZM914.1,1194.1v39.18c0,7.28,2.56,13.49,7.7,18.61,5.21,5.06,11.37,7.58,18.5,7.58h39.18v-39.18c0-7.12-2.53-13.29-7.58-18.5-5.13-5.13-11.33-7.7-18.61-7.7h-39.19ZM909.39,1189.39v-39.18c0-7.05-2.53-13.17-7.58-18.38-5.21-5.21-11.37-7.81-18.5-7.81h-39.3v39.3c0,7.12,2.6,13.29,7.81,18.5,5.21,5.06,11.33,7.58,18.38,7.58h39.19ZM909.39,1194.1h-39.18c-7.12,0-13.25,2.56-18.38,7.7-5.21,5.21-7.81,11.37-7.81,18.5v39.18h39.3c7.2,0,13.36-2.53,18.5-7.58,5.05-5.13,7.58-11.33,7.58-18.61v-39.18h-.01Z"/><path class="cls-2" d="M1054.6,908.39h39.18c7.28,0,13.49-2.53,18.61-7.58,5.05-5.13,7.58-11.3,7.58-18.5v-39.3h-39.18c-7.12,0-13.29,2.6-18.5,7.81-5.13,5.14-7.7,11.26-7.7,18.38v39.18h.01ZM1054.6,913.1v39.18c0,7.28,2.56,13.49,7.7,18.61,5.21,5.06,11.37,7.58,18.5,7.58h39.18v-39.18c0-7.12-2.53-13.29-7.58-18.5-5.13-5.13-11.33-7.7-18.61-7.7h-39.19ZM1049.89,908.39v-39.18c0-7.05-2.53-13.17-7.58-18.38-5.21-5.21-11.37-7.81-18.5-7.81h-39.3v39.3c0,7.12,2.6,13.29,7.81,18.5,5.21,5.06,11.33,7.58,18.38,7.58h39.19ZM1049.89,913.1h-39.18c-7.12,0-13.25,2.56-18.38,7.7-5.21,5.21-7.81,11.37-7.81,18.5v39.18h39.3c7.2,0,13.36-2.53,18.5-7.58,5.05-5.13,7.58-11.33,7.58-18.61v-39.18h-.01Z"/><path class="cls-1" d="M1195.1,1048.89h39.18c7.28,0,13.49-2.53,18.61-7.58,5.05-5.13,7.58-11.3,7.58-18.5v-39.3h-39.18c-7.12,0-13.29,2.6-18.5,7.81-5.13,5.14-7.7,11.26-7.7,18.38v39.18h.01ZM1195.1,1053.6v39.18c0,7.28,2.56,13.49,7.7,18.61,5.21,5.06,11.37,7.58,18.5,7.58h39.18v-39.18c0-7.12-2.53-13.29-7.58-18.5-5.13-5.13-11.33-7.7-18.61-7.7h-39.19ZM1190.39,1048.89v-39.18c0-7.05-2.53-13.17-7.58-18.38-5.21-5.21-11.37-7.81-18.5-7.81h-39.3v39.3c0,7.12,2.6,13.29,7.81,18.5,5.21,5.06,11.33,7.58,18.38,7.58h39.19ZM1190.39,1053.6h-39.18c-7.12,0-13.25,2.56-18.38,7.7-5.21,5.21-7.81,11.37-7.81,18.5v39.18h39.3c7.2,0,13.36-2.53,18.5-7.58,5.05-5.13,7.58-11.33,7.58-18.61v-39.18h-.01Z"/><path class="cls-1" d="M1054.6,1048.89h39.18c7.28,0,13.49-2.53,18.61-7.58,5.05-5.13,7.58-11.3,7.58-18.5v-39.3h-39.18c-7.12,0-13.29,2.6-18.5,7.81-5.13,5.14-7.7,11.26-7.7,18.38v39.18h.01ZM1054.6,1053.6v39.18c0,7.28,2.56,13.49,7.7,18.61,5.21,5.06,11.37,7.58,18.5,7.58h39.18v-39.18c0-7.12-2.53-13.29-7.58-18.5-5.13-5.13-11.33-7.7-18.61-7.7h-39.19ZM1049.89,1048.89v-39.18c0-7.05-2.53-13.17-7.58-18.38-5.21-5.21-11.37-7.81-18.5-7.81h-39.3v39.3c0,7.12,2.6,13.29,7.81,18.5,5.21,5.06,11.33,7.58,18.38,7.58h39.19ZM1049.89,1053.6h-39.18c-7.12,0-13.25,2.56-18.38,7.7-5.21,5.21-7.81,11.37-7.81,18.5v39.18h39.3c7.2,0,13.36-2.53,18.5-7.58,5.05-5.13,7.58-11.33,7.58-18.61v-39.18h-.01Z"/><path class="cls-3" d="M1054.6,1470.39h39.18c7.28,0,13.49-2.53,18.61-7.58,5.05-5.13,7.58-11.3,7.58-18.5v-39.3h-39.18c-7.12,0-13.29,2.6-18.5,7.81-5.13,5.14-7.7,11.26-7.7,18.38v39.18h.01ZM1054.6,1475.1v39.18c0,7.28,2.56,13.49,7.7,18.61,5.21,5.06,11.37,7.58,18.5,7.58h39.18v-39.18c0-7.12-2.53-13.29-7.58-18.5-5.13-5.13-11.33-7.7-18.61-7.7h-39.19ZM1049.89,1470.39v-39.18c0-7.05-2.53-13.17-7.58-18.38-5.21-5.21-11.37-7.81-18.5-7.81h-39.3v39.3c0,7.12,2.6,13.29,7.81,18.5,5.21,5.06,11.33,7.58,18.38,7.58h39.19ZM1049.89,1475.1h-39.18c-7.12,0-13.25,2.56-18.38,7.7-5.21,5.21-7.81,11.37-7.81,18.5v39.18h39.3c7.2,0,13.36-2.53,18.5-7.58,5.05-5.13,7.58-11.33,7.58-18.61v-39.18h-.01Z"/><path class="cls-2" d="M773.6,908.39h39.18c7.28,0,13.49-2.53,18.61-7.58,5.05-5.13,7.58-11.3,7.58-18.5v-39.3h-39.18c-7.12,0-13.29,2.6-18.5,7.81-5.13,5.14-7.7,11.26-7.7,18.38v39.18h.01ZM773.6,913.1v39.18c0,7.28,2.56,13.49,7.7,18.61,5.21,5.06,11.37,7.58,18.5,7.58h39.18v-39.18c0-7.12-2.53-13.29-7.58-18.5-5.13-5.13-11.33-7.7-18.61-7.7h-39.19ZM768.89,908.39v-39.18c0-7.05-2.53-13.17-7.58-18.38-5.21-5.21-11.37-7.81-18.5-7.81h-39.3v39.3c0,7.12,2.6,13.29,7.81,18.5,5.21,5.06,11.33,7.58,18.38,7.58h39.19ZM768.89,913.1h-39.18c-7.12,0-13.25,2.56-18.38,7.7-5.21,5.21-7.81,11.37-7.81,18.5v39.18h39.3c7.2,0,13.36-2.53,18.5-7.58,5.05-5.13,7.58-11.33,7.58-18.61v-39.18h-.01Z"/><path class="cls-2" d="M492.6,908.39h39.18c7.28,0,13.49-2.53,18.61-7.58,5.05-5.13,7.58-11.3,7.58-18.5v-39.3h-39.18c-7.12,0-13.29,2.6-18.5,7.81-5.13,5.14-7.7,11.26-7.7,18.38v39.18h.01ZM492.6,913.1v39.18c0,7.28,2.56,13.49,7.7,18.61,5.21,5.06,11.37,7.58,18.5,7.58h39.18v-39.18c0-7.12-2.53-13.29-7.58-18.5-5.13-5.13-11.33-7.7-18.61-7.7h-39.19ZM487.89,908.39v-39.18c0-7.05-2.53-13.17-7.58-18.38-5.21-5.21-11.37-7.81-18.5-7.81h-39.3v39.3c0,7.12,2.6,13.29,7.81,18.5,5.21,5.06,11.33,7.58,18.38,7.58h39.19ZM487.89,913.1h-39.18c-7.12,0-13.25,2.56-18.38,7.7-5.21,5.21-7.81,11.37-7.81,18.5v39.18h39.3c7.2,0,13.36-2.53,18.5-7.58,5.05-5.13,7.58-11.33,7.58-18.61v-39.18h-.01Z"/><path class="cls-2" d="M1335.6,1189.39h39.18c7.28,0,13.49-2.53,18.61-7.58,5.05-5.13,7.58-11.3,7.58-18.5v-39.3h-39.18c-7.12,0-13.29,2.6-18.5,7.81-5.13,5.14-7.7,11.26-7.7,18.38v39.18h.01ZM1335.6,1194.1v39.18c0,7.28,2.56,13.49,7.7,18.61,5.21,5.06,11.37,7.58,18.5,7.58h39.18v-39.18c0-7.12-2.53-13.29-7.58-18.5-5.13-5.13-11.33-7.7-18.61-7.7h-39.19ZM1330.89,1189.39v-39.18c0-7.05-2.53-13.17-7.58-18.38-5.21-5.21-11.37-7.81-18.5-7.81h-39.3v39.3c0,7.12,2.6,13.29,7.81,18.5,5.21,5.06,11.33,7.58,18.38,7.58h39.19ZM1330.89,1194.1h-39.18c-7.12,0-13.25,2.56-18.38,7.7-5.21,5.21-7.81,11.37-7.81,18.5v39.18h39.3c7.2,0,13.36-2.53,18.5-7.58,5.05-5.13,7.58-11.33,7.58-18.61v-39.18h-.01Z"/><path class="cls-2" d="M1476.1,1189.39h39.18c7.28,0,13.49-2.53,18.61-7.58,5.05-5.13,7.58-11.3,7.58-18.5v-39.3h-39.18c-7.12,0-13.29,2.6-18.5,7.81-5.13,5.14-7.7,11.26-7.7,18.38v39.18h.01ZM1476.1,1194.1v39.18c0,7.28,2.56,13.49,7.7,18.61,5.21,5.06,11.37,7.58,18.5,7.58h39.18v-39.18c0-7.12-2.53-13.29-7.58-18.5-5.13-5.13-11.33-7.7-18.61-7.7h-39.19ZM1471.39,1189.39v-39.18c0-7.05-2.53-13.17-7.58-18.38-5.21-5.21-11.37-7.81-18.5-7.81h-39.3v39.3c0,7.12,2.6,13.29,7.81,18.5,5.21,5.06,11.33,7.58,18.38,7.58h39.19ZM1471.39,1194.1h-39.18c-7.12,0-13.25,2.56-18.38,7.7-5.21,5.21-7.81,11.37-7.81,18.5v39.18h39.3c7.2,0,13.36-2.53,18.5-7.58,5.05-5.13,7.58-11.33,7.58-18.61v-39.18h-.01Z"/><path class="cls-2" d="M633.1,1189.39h39.18c7.28,0,13.49-2.53,18.61-7.58,5.05-5.13,7.58-11.3,7.58-18.5v-39.3h-39.18c-7.12,0-13.29,2.6-18.5,7.81-5.13,5.14-7.7,11.26-7.7,18.38v39.18h.01ZM633.1,1194.1v39.18c0,7.28,2.56,13.49,7.7,18.61,5.21,5.06,11.37,7.58,18.5,7.58h39.18v-39.18c0-7.12-2.53-13.29-7.58-18.5-5.13-5.13-11.33-7.7-18.61-7.7h-39.19ZM628.39,1189.39v-39.18c0-7.05-2.53-13.17-7.58-18.38-5.21-5.21-11.37-7.81-18.5-7.81h-39.3v39.3c0,7.12,2.6,13.29,7.81,18.5,5.21,5.06,11.33,7.58,18.38,7.58h39.19ZM628.39,1194.1h-39.18c-7.12,0-13.25,2.56-18.38,7.7-5.21,5.21-7.81,11.37-7.81,18.5v39.18h39.3c7.2,0,13.36-2.53,18.5-7.58,5.05-5.13,7.58-11.33,7.58-18.61v-39.18h-.01Z"/><path class="cls-1" d="M1195.1,1189.39h39.18c7.28,0,13.49-2.53,18.61-7.58,5.05-5.13,7.58-11.3,7.58-18.5v-39.3h-39.18c-7.12,0-13.29,2.6-18.5,7.81-5.13,5.14-7.7,11.26-7.7,18.38v39.18h.01ZM1195.1,1194.1v39.18c0,7.28,2.56,13.49,7.7,18.61,5.21,5.06,11.37,7.58,18.5,7.58h39.18v-39.18c0-7.12-2.53-13.29-7.58-18.5-5.13-5.13-11.33-7.7-18.61-7.7h-39.19ZM1190.39,1189.39v-39.18c0-7.05-2.53-13.17-7.58-18.38-5.21-5.21-11.37-7.81-18.5-7.81h-39.3v39.3c0,7.12,2.6,13.29,7.81,18.5,5.21,5.06,11.33,7.58,18.38,7.58h39.19ZM1190.39,1194.1h-39.18c-7.12,0-13.25,2.56-18.38,7.7-5.21,5.21-7.81,11.37-7.81,18.5v39.18h39.3c7.2,0,13.36-2.53,18.5-7.58,5.05-5.13,7.58-11.33,7.58-18.61v-39.18h-.01Z"/><path class="cls-1" d="M1759.62,1329.89h39.18c7.28,0,13.49-2.53,18.61-7.58,5.05-5.13,7.58-11.3,7.58-18.5v-39.3h-39.18c-7.12,0-13.29,2.6-18.5,7.81-5.13,5.14-7.7,11.26-7.7,18.38v39.18h.01ZM1759.62,1334.6v39.18c0,7.28,2.56,13.49,7.7,18.61,5.21,5.06,11.37,7.58,18.5,7.58h39.18v-39.18c0-7.12-2.53-13.29-7.58-18.5-5.13-5.13-11.33-7.7-18.61-7.7h-39.19ZM1754.9,1329.89v-39.18c0-7.05-2.53-13.17-7.58-18.38-5.21-5.21-11.37-7.81-18.5-7.81h-39.3v39.3c0,7.12,2.6,13.29,7.81,18.5,5.21,5.06,11.33,7.58,18.38,7.58h39.19ZM1754.9,1334.6h-39.18c-7.12,0-13.25,2.56-18.38,7.7-5.21,5.21-7.81,11.37-7.81,18.5v39.18h39.3c7.2,0,13.36-2.53,18.5-7.58,5.05-5.13,7.58-11.33,7.58-18.61v-39.18h-.01Z"/><path class="cls-2" d="M1197.61,1329.89h39.18c7.28,0,13.49-2.53,18.61-7.58,5.05-5.13,7.58-11.3,7.58-18.5v-39.3h-39.18c-7.12,0-13.29,2.6-18.5,7.81-5.13,5.14-7.7,11.26-7.7,18.38v39.18h.01ZM1197.61,1334.6v39.18c0,7.28,2.56,13.49,7.7,18.61,5.21,5.06,11.37,7.58,18.5,7.58h39.18v-39.18c0-7.12-2.53-13.29-7.58-18.5-5.13-5.13-11.33-7.7-18.61-7.7h-39.19ZM1192.9,1329.89v-39.18c0-7.05-2.53-13.17-7.58-18.38-5.21-5.21-11.37-7.81-18.5-7.81h-39.3v39.3c0,7.12,2.6,13.29,7.81,18.5,5.21,5.06,11.33,7.58,18.38,7.58h39.19ZM1192.9,1334.6h-39.18c-7.12,0-13.25,2.56-18.38,7.7-5.21,5.21-7.81,11.37-7.81,18.5v39.18h39.3c7.2,0,13.36-2.53,18.5-7.58,5.05-5.13,7.58-11.33,7.58-18.61v-39.18h-.01Z"/><path class="cls-2" d="M773.6,1189.39h39.18c7.28,0,13.49-2.53,18.61-7.58,5.05-5.13,7.58-11.3,7.58-18.5v-39.3h-39.18c-7.12,0-13.29,2.6-18.5,7.81-5.13,5.14-7.7,11.26-7.7,18.38v39.18h.01ZM773.6,1194.1v39.18c0,7.28,2.56,13.49,7.7,18.61,5.21,5.06,11.37,7.58,18.5,7.58h39.18v-39.18c0-7.12-2.53-13.29-7.58-18.5-5.13-5.13-11.33-7.7-18.61-7.7h-39.19ZM768.89,1189.39v-39.18c0-7.05-2.53-13.17-7.58-18.38-5.21-5.21-11.37-7.81-18.5-7.81h-39.3v39.3c0,7.12,2.6,13.29,7.81,18.5,5.21,5.06,11.33,7.58,18.38,7.58h39.19ZM768.89,1194.1h-39.18c-7.12,0-13.25,2.56-18.38,7.7-5.21,5.21-7.81,11.37-7.81,18.5v39.18h39.3c7.2,0,13.36-2.53,18.5-7.58,5.05-5.13,7.58-11.33,7.58-18.61v-39.18h-.01Z"/><path class="cls-3" d="M492.6,1189.39h39.18c7.28,0,13.49-2.53,18.61-7.58,5.05-5.13,7.58-11.3,7.58-18.5v-39.3h-39.18c-7.12,0-13.29,2.6-18.5,7.81-5.13,5.14-7.7,11.26-7.7,18.38v39.18h.01ZM492.6,1194.1v39.18c0,7.28,2.56,13.49,7.7,18.61,5.21,5.06,11.37,7.58,18.5,7.58h39.18v-39.18c0-7.12-2.53-13.29-7.58-18.5-5.13-5.13-11.33-7.7-18.61-7.7h-39.19ZM487.89,1189.39v-39.18c0-7.05-2.53-13.17-7.58-18.38-5.21-5.21-11.37-7.81-18.5-7.81h-39.3v39.3c0,7.12,2.6,13.29,7.81,18.5,5.21,5.06,11.33,7.58,18.38,7.58h39.19ZM487.89,1194.1h-39.18c-7.12,0-13.25,2.56-18.38,7.7-5.21,5.21-7.81,11.37-7.81,18.5v39.18h39.3c7.2,0,13.36-2.53,18.5-7.58,5.05-5.13,7.58-11.33,7.58-18.61v-39.18h-.01Z"/><path class="cls-2" d="M352.1,1329.89h39.18c7.28,0,13.49-2.53,18.61-7.58,5.05-5.13,7.58-11.3,7.58-18.5v-39.3h-39.18c-7.12,0-13.29,2.6-18.5,7.81-5.13,5.14-7.7,11.26-7.7,18.38v39.18h.01ZM352.1,1334.6v39.18c0,7.28,2.56,13.49,7.7,18.61,5.21,5.06,11.37,7.58,18.5,7.58h39.18v-39.18c0-7.12-2.53-13.29-7.58-18.5-5.13-5.13-11.33-7.7-18.61-7.7h-39.19ZM347.39,1329.89v-39.18c0-7.05-2.53-13.17-7.58-18.38-5.21-5.21-11.37-7.81-18.5-7.81h-39.3v39.3c0,7.12,2.6,13.29,7.81,18.5,5.21,5.06,11.33,7.58,18.38,7.58h39.19ZM347.39,1334.6h-39.18c-7.12,0-13.25,2.56-18.38,7.7-5.21,5.21-7.81,11.37-7.81,18.5v39.18h39.3c7.2,0,13.36-2.53,18.5-7.58,5.05-5.13,7.58-11.33,7.58-18.61v-39.18h-.01Z"/><path class="cls-3" d="M1054.6,627.39h39.18c7.28,0,13.49-2.53,18.61-7.58,5.05-5.13,7.58-11.3,7.58-18.5v-39.3h-39.18c-7.12,0-13.29,2.6-18.5,7.81-5.13,5.14-7.7,11.26-7.7,18.38v39.18h.01ZM1054.6,632.1v39.18c0,7.28,2.56,13.49,7.7,18.61,5.21,5.06,11.37,7.58,18.5,7.58h39.18v-39.18c0-7.12-2.53-13.29-7.58-18.5-5.13-5.13-11.33-7.7-18.61-7.7h-39.19ZM1049.89,627.39v-39.18c0-7.05-2.53-13.17-7.58-18.38-5.21-5.21-11.37-7.81-18.5-7.81h-39.3v39.3c0,7.12,2.6,13.29,7.81,18.5,5.21,5.06,11.33,7.58,18.38,7.58h39.19ZM1049.89,632.1h-39.18c-7.12,0-13.25,2.56-18.38,7.7-5.21,5.21-7.81,11.37-7.81,18.5v39.18h39.3c7.2,0,13.36-2.53,18.5-7.58,5.05-5.13,7.58-11.33,7.58-18.61v-39.18h-.01Z"/><path class="cls-2" d="M1757.11,627.39h39.18c7.28,0,13.49-2.53,18.61-7.58,5.05-5.13,7.58-11.3,7.58-18.5v-39.3h-39.18c-7.12,0-13.29,2.6-18.5,7.81-5.13,5.14-7.7,11.26-7.7,18.38v39.18h.01ZM1757.11,632.1v39.18c0,7.28,2.56,13.49,7.7,18.61,5.21,5.06,11.37,7.58,18.5,7.58h39.18v-39.18c0-7.12-2.53-13.29-7.58-18.5-5.13-5.13-11.33-7.7-18.61-7.7h-39.19ZM1752.39,627.39v-39.18c0-7.05-2.53-13.17-7.58-18.38-5.21-5.21-11.37-7.81-18.5-7.81h-39.3v39.3c0,7.12,2.6,13.29,7.81,18.5,5.21,5.06,11.33,7.58,18.38,7.58h39.19ZM1752.39,632.1h-39.18c-7.12,0-13.25,2.56-18.38,7.7-5.21,5.21-7.81,11.37-7.81,18.5v39.18h39.3c7.2,0,13.36-2.53,18.5-7.58,5.05-5.13,7.58-11.33,7.58-18.61v-39.18h-.01Z"/><path class="cls-2" d="M1335.6,627.39h39.18c7.28,0,13.49-2.53,18.61-7.58,5.05-5.13,7.58-11.3,7.58-18.5v-39.3h-39.18c-7.12,0-13.29,2.6-18.5,7.81-5.13,5.14-7.7,11.26-7.7,18.38v39.18h.01ZM1335.6,632.1v39.18c0,7.28,2.56,13.49,7.7,18.61,5.21,5.06,11.37,7.58,18.5,7.58h39.18v-39.18c0-7.12-2.53-13.29-7.58-18.5-5.13-5.13-11.33-7.7-18.61-7.7h-39.19ZM1330.89,627.39v-39.18c0-7.05-2.53-13.17-7.58-18.38-5.21-5.21-11.37-7.81-18.5-7.81h-39.3v39.3c0,7.12,2.6,13.29,7.81,18.5,5.21,5.06,11.33,7.58,18.38,7.58h39.19ZM1330.89,632.1h-39.18c-7.12,0-13.25,2.56-18.38,7.7-5.21,5.21-7.81,11.37-7.81,18.5v39.18h39.3c7.2,0,13.36-2.53,18.5-7.58,5.05-5.13,7.58-11.33,7.58-18.61v-39.18h-.01Z"/><path class="cls-1" d="M773.6,627.39h39.18c7.28,0,13.49-2.53,18.61-7.58,5.05-5.13,7.58-11.3,7.58-18.5v-39.3h-39.18c-7.12,0-13.29,2.6-18.5,7.81-5.13,5.14-7.7,11.26-7.7,18.38v39.18h.01ZM773.6,632.1v39.18c0,7.28,2.56,13.49,7.7,18.61,5.21,5.06,11.37,7.58,18.5,7.58h39.18v-39.18c0-7.12-2.53-13.29-7.58-18.5-5.13-5.13-11.33-7.7-18.61-7.7h-39.19ZM768.89,627.39v-39.18c0-7.05-2.53-13.17-7.58-18.38-5.21-5.21-11.37-7.81-18.5-7.81h-39.3v39.3c0,7.12,2.6,13.29,7.81,18.5,5.21,5.06,11.33,7.58,18.38,7.58h39.19ZM768.89,632.1h-39.18c-7.12,0-13.25,2.56-18.38,7.7-5.21,5.21-7.81,11.37-7.81,18.5v39.18h39.3c7.2,0,13.36-2.53,18.5-7.58,5.05-5.13,7.58-11.33,7.58-18.61v-39.18h-.01Z"/><path class="cls-2" d="M492.6,627.39h39.18c7.28,0,13.49-2.53,18.61-7.58,5.05-5.13,7.58-11.3,7.58-18.5v-39.3h-39.18c-7.12,0-13.29,2.6-18.5,7.81-5.13,5.14-7.7,11.26-7.7,18.38v39.18h.01ZM492.6,632.1v39.18c0,7.28,2.56,13.49,7.7,18.61,5.21,5.06,11.37,7.58,18.5,7.58h39.18v-39.18c0-7.12-2.53-13.29-7.58-18.5-5.13-5.13-11.33-7.7-18.61-7.7h-39.19ZM487.89,627.39v-39.18c0-7.05-2.53-13.17-7.58-18.38-5.21-5.21-11.37-7.81-18.5-7.81h-39.3v39.3c0,7.12,2.6,13.29,7.81,18.5,5.21,5.06,11.33,7.58,18.38,7.58h39.19ZM487.89,632.1h-39.18c-7.12,0-13.25,2.56-18.38,7.7-5.21,5.21-7.81,11.37-7.81,18.5v39.18h39.3c7.2,0,13.36-2.53,18.5-7.58,5.05-5.13,7.58-11.33,7.58-18.61v-39.18h-.01Z"/><path class="cls-1" d="M914.1,627.39h39.18c7.28,0,13.49-2.53,18.61-7.58,5.05-5.13,7.58-11.3,7.58-18.5v-39.3h-39.18c-7.12,0-13.29,2.6-18.5,7.81-5.13,5.14-7.7,11.26-7.7,18.38v39.18h.01ZM914.1,632.1v39.18c0,7.28,2.56,13.49,7.7,18.61,5.21,5.06,11.37,7.58,18.5,7.58h39.18v-39.18c0-7.12-2.53-13.29-7.58-18.5-5.13-5.13-11.33-7.7-18.61-7.7h-39.19ZM909.39,627.39v-39.18c0-7.05-2.53-13.17-7.58-18.38-5.21-5.21-11.37-7.81-18.5-7.81h-39.3v39.3c0,7.12,2.6,13.29,7.81,18.5,5.21,5.06,11.33,7.58,18.38,7.58h39.19ZM909.39,632.1h-39.18c-7.12,0-13.25,2.56-18.38,7.7-5.21,5.21-7.81,11.37-7.81,18.5v39.18h39.3c7.2,0,13.36-2.53,18.5-7.58,5.05-5.13,7.58-11.33,7.58-18.61v-39.18h-.01Z"/><path class="cls-2" d="M1195.1,486.89h39.18c7.28,0,13.49-2.53,18.61-7.58,5.05-5.13,7.58-11.3,7.58-18.5v-39.3h-39.18c-7.12,0-13.29,2.6-18.5,7.81-5.13,5.14-7.7,11.26-7.7,18.38v39.18h.01ZM1195.1,491.6v39.18c0,7.28,2.56,13.49,7.7,18.61,5.21,5.06,11.37,7.58,18.5,7.58h39.18v-39.18c0-7.12-2.53-13.29-7.58-18.5-5.13-5.13-11.33-7.7-18.61-7.7h-39.19ZM1190.39,486.89v-39.18c0-7.05-2.53-13.17-7.58-18.38-5.21-5.21-11.37-7.81-18.5-7.81h-39.3v39.3c0,7.12,2.6,13.29,7.81,18.5,5.21,5.06,11.33,7.58,18.38,7.58h39.19ZM1190.39,491.6h-39.18c-7.12,0-13.25,2.56-18.38,7.7-5.21,5.21-7.81,11.37-7.81,18.5v39.18h39.3c7.2,0,13.36-2.53,18.5-7.58,5.05-5.13,7.58-11.33,7.58-18.61v-39.18h-.01Z"/><path class="cls-2" d="M1616.61,486.89h39.18c7.28,0,13.49-2.53,18.61-7.58,5.05-5.13,7.58-11.3,7.58-18.5v-39.3h-39.18c-7.12,0-13.29,2.6-18.5,7.81-5.13,5.14-7.7,11.26-7.7,18.38v39.18h.01ZM1616.61,491.6v39.18c0,7.28,2.56,13.49,7.7,18.61,5.21,5.06,11.37,7.58,18.5,7.58h39.18v-39.18c0-7.12-2.53-13.29-7.58-18.5-5.13-5.13-11.33-7.7-18.61-7.7h-39.19ZM1611.89,486.89v-39.18c0-7.05-2.53-13.17-7.58-18.38-5.21-5.21-11.37-7.81-18.5-7.81h-39.3v39.3c0,7.12,2.6,13.29,7.81,18.5,5.21,5.06,11.33,7.58,18.38,7.58h39.19ZM1611.89,491.6h-39.18c-7.12,0-13.25,2.56-18.38,7.7-5.21,5.21-7.81,11.37-7.81,18.5v39.18h39.3c7.2,0,13.36-2.53,18.5-7.58,5.05-5.13,7.58-11.33,7.58-18.61v-39.18h-.01Z"/><path class="cls-2" d="M1476.1,486.89h39.18c7.28,0,13.49-2.53,18.61-7.58,5.05-5.13,7.58-11.3,7.58-18.5v-39.3h-39.18c-7.12,0-13.29,2.6-18.5,7.81-5.13,5.14-7.7,11.26-7.7,18.38v39.18h.01ZM1476.1,491.6v39.18c0,7.28,2.56,13.49,7.7,18.61,5.21,5.06,11.37,7.58,18.5,7.58h39.18v-39.18c0-7.12-2.53-13.29-7.58-18.5-5.13-5.13-11.33-7.7-18.61-7.7h-39.19ZM1471.39,486.89v-39.18c0-7.05-2.53-13.17-7.58-18.38-5.21-5.21-11.37-7.81-18.5-7.81h-39.3v39.3c0,7.12,2.6,13.29,7.81,18.5,5.21,5.06,11.33,7.58,18.38,7.58h39.19ZM1471.39,491.6h-39.18c-7.12,0-13.25,2.56-18.38,7.7-5.21,5.21-7.81,11.37-7.81,18.5v39.18h39.3c7.2,0,13.36-2.53,18.5-7.58,5.05-5.13,7.58-11.33,7.58-18.61v-39.18h-.01Z"/><path class="cls-2" d="M633.1,486.89h39.18c7.28,0,13.49-2.53,18.61-7.58,5.05-5.13,7.58-11.3,7.58-18.5v-39.3h-39.18c-7.12,0-13.29,2.6-18.5,7.81-5.13,5.14-7.7,11.26-7.7,18.38v39.18h.01ZM633.1,491.6v39.18c0,7.28,2.56,13.49,7.7,18.61,5.21,5.06,11.37,7.58,18.5,7.58h39.18v-39.18c0-7.12-2.53-13.29-7.58-18.5-5.13-5.13-11.33-7.7-18.61-7.7h-39.19ZM628.39,486.89v-39.18c0-7.05-2.53-13.17-7.58-18.38-5.21-5.21-11.37-7.81-18.5-7.81h-39.3v39.3c0,7.12,2.6,13.29,7.81,18.5,5.21,5.06,11.33,7.58,18.38,7.58h39.19ZM628.39,491.6h-39.18c-7.12,0-13.25,2.56-18.38,7.7-5.21,5.21-7.81,11.37-7.81,18.5v39.18h39.3c7.2,0,13.36-2.53,18.5-7.58,5.05-5.13,7.58-11.33,7.58-18.61v-39.18h-.01Z"/><path class="cls-1" d="M1757.11,346.39h39.18c7.28,0,13.49-2.53,18.61-7.58,5.05-5.13,7.58-11.3,7.58-18.5v-39.3h-39.18c-7.12,0-13.29,2.6-18.5,7.81-5.13,5.14-7.7,11.26-7.7,18.38v39.18h.01ZM1757.11,351.1v39.18c0,7.28,2.56,13.49,7.7,18.61,5.21,5.06,11.37,7.58,18.5,7.58h39.18v-39.18c0-7.12-2.53-13.29-7.58-18.5-5.13-5.13-11.33-7.7-18.61-7.7h-39.19ZM1752.39,346.39v-39.18c0-7.05-2.53-13.17-7.58-18.38-5.21-5.21-11.37-7.81-18.5-7.81h-39.3v39.3c0,7.12,2.6,13.29,7.81,18.5,5.21,5.06,11.33,7.58,18.38,7.58h39.19ZM1752.39,351.1h-39.18c-7.12,0-13.25,2.56-18.38,7.7-5.21,5.21-7.81,11.37-7.81,18.5v39.18h39.3c7.2,0,13.36-2.53,18.5-7.58,5.05-5.13,7.58-11.33,7.58-18.61v-39.18h-.01Z"/><path class="cls-2" d="M773.6,346.39h39.18c7.28,0,13.49-2.53,18.61-7.58,5.05-5.13,7.58-11.3,7.58-18.5v-39.3h-39.18c-7.12,0-13.29,2.6-18.5,7.81-5.13,5.14-7.7,11.26-7.7,18.38v39.18h.01ZM773.6,351.1v39.18c0,7.28,2.56,13.49,7.7,18.61,5.21,5.06,11.37,7.58,18.5,7.58h39.18v-39.18c0-7.12-2.53-13.29-7.58-18.5-5.13-5.13-11.33-7.7-18.61-7.7h-39.19ZM768.89,346.39v-39.18c0-7.05-2.53-13.17-7.58-18.38-5.21-5.21-11.37-7.81-18.5-7.81h-39.3v39.3c0,7.12,2.6,13.29,7.81,18.5,5.21,5.06,11.33,7.58,18.38,7.58h39.19ZM768.89,351.1h-39.18c-7.12,0-13.25,2.56-18.38,7.7-5.21,5.21-7.81,11.37-7.81,18.5v39.18h39.3c7.2,0,13.36-2.53,18.5-7.58,5.05-5.13,7.58-11.33,7.58-18.61v-39.18h-.01Z"/><path class="cls-2" d="M1195.1,346.39h39.18c7.28,0,13.49-2.53,18.61-7.58,5.05-5.13,7.58-11.3,7.58-18.5v-39.3h-39.18c-7.12,0-13.29,2.6-18.5,7.81-5.13,5.14-7.7,11.26-7.7,18.38v39.18h.01ZM1195.1,351.1v39.18c0,7.28,2.56,13.49,7.7,18.61,5.21,5.06,11.37,7.58,18.5,7.58h39.18v-39.18c0-7.12-2.53-13.29-7.58-18.5-5.13-5.13-11.33-7.7-18.61-7.7h-39.19ZM1190.39,346.39v-39.18c0-7.05-2.53-13.17-7.58-18.38-5.21-5.21-11.37-7.81-18.5-7.81h-39.3v39.3c0,7.12,2.6,13.29,7.81,18.5,5.21,5.06,11.33,7.58,18.38,7.58h39.19ZM1190.39,351.1h-39.18c-7.12,0-13.25,2.56-18.38,7.7-5.21,5.21-7.81,11.37-7.81,18.5v39.18h39.3c7.2,0,13.36-2.53,18.5-7.58,5.05-5.13,7.58-11.33,7.58-18.61v-39.18h-.01Z"/><path class="cls-1" d="M1616.61,346.39h39.18c7.28,0,13.49-2.53,18.61-7.58,5.05-5.13,7.58-11.3,7.58-18.5v-39.3h-39.18c-7.12,0-13.29,2.6-18.5,7.81-5.13,5.14-7.7,11.26-7.7,18.38v39.18h.01ZM1616.61,351.1v39.18c0,7.28,2.56,13.49,7.7,18.61,5.21,5.06,11.37,7.58,18.5,7.58h39.18v-39.18c0-7.12-2.53-13.29-7.58-18.5-5.13-5.13-11.33-7.7-18.61-7.7h-39.19ZM1611.89,346.39v-39.18c0-7.05-2.53-13.17-7.58-18.38-5.21-5.21-11.37-7.81-18.5-7.81h-39.3v39.3c0,7.12,2.6,13.29,7.81,18.5,5.21,5.06,11.33,7.58,18.38,7.58h39.19ZM1611.89,351.1h-39.18c-7.12,0-13.25,2.56-18.38,7.7-5.21,5.21-7.81,11.37-7.81,18.5v39.18h39.3c7.2,0,13.36-2.53,18.5-7.58,5.05-5.13,7.58-11.33,7.58-18.61v-39.18h-.01Z"/><path class="cls-1" d="M1616.61,65.38h39.18c7.28,0,13.49-2.53,18.61-7.58,5.05-5.13,7.58-11.3,7.58-18.5V0h-39.18c-7.12,0-13.29,2.6-18.5,7.81-5.13,5.14-7.7,11.26-7.7,18.38v39.18h.01ZM1616.61,70.1v39.18c0,7.28,2.56,13.49,7.7,18.61,5.21,5.06,11.37,7.58,18.5,7.58h39.18v-39.18c0-7.12-2.53-13.29-7.58-18.5-5.13-5.13-11.33-7.7-18.61-7.7h-39.19ZM1611.89,65.38V26.21c0-7.05-2.53-13.17-7.58-18.38-5.21-5.21-11.37-7.81-18.5-7.81h-39.3v39.3c0,7.12,2.6,13.29,7.81,18.5,5.21,5.06,11.33,7.58,18.38,7.58h39.19ZM1611.89,70.1h-39.18c-7.12,0-13.25,2.56-18.38,7.7-5.21,5.21-7.81,11.37-7.81,18.5v39.18h39.3c7.2,0,13.36-2.53,18.5-7.58,5.05-5.13,7.58-11.33,7.58-18.61v-39.18h-.01Z"/><path class="cls-3" d="M1476.1,346.39h39.18c7.28,0,13.49-2.53,18.61-7.58,5.05-5.13,7.58-11.3,7.58-18.5v-39.3h-39.18c-7.12,0-13.29,2.6-18.5,7.81-5.13,5.14-7.7,11.26-7.7,18.38v39.18h.01ZM1476.1,351.1v39.18c0,7.28,2.56,13.49,7.7,18.61,5.21,5.06,11.37,7.58,18.5,7.58h39.18v-39.18c0-7.12-2.53-13.29-7.58-18.5-5.13-5.13-11.33-7.7-18.61-7.7h-39.19ZM1471.39,346.39v-39.18c0-7.05-2.53-13.17-7.58-18.38-5.21-5.21-11.37-7.81-18.5-7.81h-39.3v39.3c0,7.12,2.6,13.29,7.81,18.5,5.21,5.06,11.33,7.58,18.38,7.58h39.19ZM1471.39,351.1h-39.18c-7.12,0-13.25,2.56-18.38,7.7-5.21,5.21-7.81,11.37-7.81,18.5v39.18h39.3c7.2,0,13.36-2.53,18.5-7.58,5.05-5.13,7.58-11.33,7.58-18.61v-39.18h-.01Z"/><path class="cls-2" d="M633.1,346.39h39.18c7.28,0,13.49-2.53,18.61-7.58,5.05-5.13,7.58-11.3,7.58-18.5v-39.3h-39.18c-7.12,0-13.29,2.6-18.5,7.81-5.13,5.14-7.7,11.26-7.7,18.38v39.18h.01ZM633.1,351.1v39.18c0,7.28,2.56,13.49,7.7,18.61,5.21,5.06,11.37,7.58,18.5,7.58h39.18v-39.18c0-7.12-2.53-13.29-7.58-18.5-5.13-5.13-11.33-7.7-18.61-7.7h-39.19ZM628.39,346.39v-39.18c0-7.05-2.53-13.17-7.58-18.38-5.21-5.21-11.37-7.81-18.5-7.81h-39.3v39.3c0,7.12,2.6,13.29,7.81,18.5,5.21,5.06,11.33,7.58,18.38,7.58h39.19ZM628.39,351.1h-39.18c-7.12,0-13.25,2.56-18.38,7.7-5.21,5.21-7.81,11.37-7.81,18.5v39.18h39.3c7.2,0,13.36-2.53,18.5-7.58,5.05-5.13,7.58-11.33,7.58-18.61v-39.18h-.01Z"/><path class="cls-2" d="M1054.6,486.89h39.18c7.28,0,13.49-2.53,18.61-7.58,5.05-5.13,7.58-11.3,7.58-18.5v-39.3h-39.18c-7.12,0-13.29,2.6-18.5,7.81-5.13,5.14-7.7,11.26-7.7,18.38v39.18h.01ZM1054.6,491.6v39.18c0,7.28,2.56,13.49,7.7,18.61,5.21,5.06,11.37,7.58,18.5,7.58h39.18v-39.18c0-7.12-2.53-13.29-7.58-18.5-5.13-5.13-11.33-7.7-18.61-7.7h-39.19ZM1049.89,486.89v-39.18c0-7.05-2.53-13.17-7.58-18.38-5.21-5.21-11.37-7.81-18.5-7.81h-39.3v39.3c0,7.12,2.6,13.29,7.81,18.5,5.21,5.06,11.33,7.58,18.38,7.58h39.19ZM1049.89,491.6h-39.18c-7.12,0-13.25,2.56-18.38,7.7-5.21,5.21-7.81,11.37-7.81,18.5v39.18h39.3c7.2,0,13.36-2.53,18.5-7.58,5.05-5.13,7.58-11.33,7.58-18.61v-39.18h-.01Z"/><path class="cls-2" d="M1195.1,205.89h39.18c7.28,0,13.49-2.53,18.61-7.58,5.05-5.13,7.58-11.3,7.58-18.5v-39.3h-39.18c-7.12,0-13.29,2.6-18.5,7.81-5.13,5.14-7.7,11.26-7.7,18.38v39.18h.01ZM1195.1,210.6v39.18c0,7.28,2.56,13.49,7.7,18.61,5.21,5.06,11.37,7.58,18.5,7.58h39.18v-39.18c0-7.12-2.53-13.29-7.58-18.5-5.13-5.13-11.33-7.7-18.61-7.7h-39.19ZM1190.39,205.89v-39.18c0-7.05-2.53-13.17-7.58-18.38-5.21-5.21-11.37-7.81-18.5-7.81h-39.3v39.3c0,7.12,2.6,13.29,7.81,18.5,5.21,5.06,11.33,7.58,18.38,7.58h39.19ZM1190.39,210.6h-39.18c-7.12,0-13.25,2.56-18.38,7.7-5.21,5.21-7.81,11.37-7.81,18.5v39.18h39.3c7.2,0,13.36-2.53,18.5-7.58,5.05-5.13,7.58-11.33,7.58-18.61v-39.18h-.01Z"/><path class="cls-3" d="M1054.6,205.89h39.18c7.28,0,13.49-2.53,18.61-7.58,5.05-5.13,7.58-11.3,7.58-18.5v-39.3h-39.18c-7.12,0-13.29,2.6-18.5,7.81-5.13,5.14-7.7,11.26-7.7,18.38v39.18h.01ZM1054.6,210.6v39.18c0,7.28,2.56,13.49,7.7,18.61,5.21,5.06,11.37,7.58,18.5,7.58h39.18v-39.18c0-7.12-2.53-13.29-7.58-18.5-5.13-5.13-11.33-7.7-18.61-7.7h-39.19ZM1049.89,205.89v-39.18c0-7.05-2.53-13.17-7.58-18.38-5.21-5.21-11.37-7.81-18.5-7.81h-39.3v39.3c0,7.12,2.6,13.29,7.81,18.5,5.21,5.06,11.33,7.58,18.38,7.58h39.19ZM1049.89,210.6h-39.18c-7.12,0-13.25,2.56-18.38,7.7-5.21,5.21-7.81,11.37-7.81,18.5v39.18h39.3c7.2,0,13.36-2.53,18.5-7.58,5.05-5.13,7.58-11.33,7.58-18.61v-39.18h-.01Z"/><path class="cls-2" d="M1335.6,486.89h39.18c7.28,0,13.49-2.53,18.61-7.58,5.05-5.13,7.58-11.3,7.58-18.5v-39.3h-39.18c-7.12,0-13.29,2.6-18.5,7.81-5.13,5.14-7.7,11.26-7.7,18.38v39.18h.01ZM1335.6,491.6v39.18c0,7.28,2.56,13.49,7.7,18.61,5.21,5.06,11.37,7.58,18.5,7.58h39.18v-39.18c0-7.12-2.53-13.29-7.58-18.5-5.13-5.13-11.33-7.7-18.61-7.7h-39.19ZM1330.89,486.89v-39.18c0-7.05-2.53-13.17-7.58-18.38-5.21-5.21-11.37-7.81-18.5-7.81h-39.3v39.3c0,7.12,2.6,13.29,7.81,18.5,5.21,5.06,11.33,7.58,18.38,7.58h39.19ZM1330.89,491.6h-39.18c-7.12,0-13.25,2.56-18.38,7.7-5.21,5.21-7.81,11.37-7.81,18.5v39.18h39.3c7.2,0,13.36-2.53,18.5-7.58,5.05-5.13,7.58-11.33,7.58-18.61v-39.18h-.01Z"/><path class="cls-3" d="M492.6,486.89h39.18c7.28,0,13.49-2.53,18.61-7.58,5.05-5.13,7.58-11.3,7.58-18.5v-39.3h-39.18c-7.12,0-13.29,2.6-18.5,7.81-5.13,5.14-7.7,11.26-7.7,18.38v39.18h.01ZM492.6,491.6v39.18c0,7.28,2.56,13.49,7.7,18.61,5.21,5.06,11.37,7.58,18.5,7.58h39.18v-39.18c0-7.12-2.53-13.29-7.58-18.5-5.13-5.13-11.33-7.7-18.61-7.7h-39.19ZM487.89,486.89v-39.18c0-7.05-2.53-13.17-7.58-18.38-5.21-5.21-11.37-7.81-18.5-7.81h-39.3v39.3c0,7.12,2.6,13.29,7.81,18.5,5.21,5.06,11.33,7.58,18.38,7.58h39.19ZM487.89,491.6h-39.18c-7.12,0-13.25,2.56-18.38,7.7-5.21,5.21-7.81,11.37-7.81,18.5v39.18h39.3c7.2,0,13.36-2.53,18.5-7.58,5.05-5.13,7.58-11.33,7.58-18.61v-39.18h-.01Z"/><path class="cls-1" d="M492.6,346.39h39.18c7.28,0,13.49-2.53,18.61-7.58,5.05-5.13,7.58-11.3,7.58-18.5v-39.3h-39.18c-7.12,0-13.29,2.6-18.5,7.81-5.13,5.14-7.7,11.26-7.7,18.38v39.18h.01ZM492.6,351.1v39.18c0,7.28,2.56,13.49,7.7,18.61,5.21,5.06,11.37,7.58,18.5,7.58h39.18v-39.18c0-7.12-2.53-13.29-7.58-18.5-5.13-5.13-11.33-7.7-18.61-7.7h-39.19ZM487.89,346.39v-39.18c0-7.05-2.53-13.17-7.58-18.38-5.21-5.21-11.37-7.81-18.5-7.81h-39.3v39.3c0,7.12,2.6,13.29,7.81,18.5,5.21,5.06,11.33,7.58,18.38,7.58h39.19ZM487.89,351.1h-39.18c-7.12,0-13.25,2.56-18.38,7.7-5.21,5.21-7.81,11.37-7.81,18.5v39.18h39.3c7.2,0,13.36-2.53,18.5-7.58,5.05-5.13,7.58-11.33,7.58-18.61v-39.18h-.01Z"/><path class="cls-1" d="M492.6,205.89h39.18c7.28,0,13.49-2.53,18.61-7.58,5.05-5.13,7.58-11.3,7.58-18.5v-39.3h-39.18c-7.12,0-13.29,2.6-18.5,7.81-5.13,5.14-7.7,11.26-7.7,18.38v39.18h.01ZM492.6,210.6v39.18c0,7.28,2.56,13.49,7.7,18.61,5.21,5.06,11.37,7.58,18.5,7.58h39.18v-39.18c0-7.12-2.53-13.29-7.58-18.5-5.13-5.13-11.33-7.7-18.61-7.7h-39.19ZM487.89,205.89v-39.18c0-7.05-2.53-13.17-7.58-18.38-5.21-5.21-11.37-7.81-18.5-7.81h-39.3v39.3c0,7.12,2.6,13.29,7.81,18.5,5.21,5.06,11.33,7.58,18.38,7.58h39.19ZM487.89,210.6h-39.18c-7.12,0-13.25,2.56-18.38,7.7-5.21,5.21-7.81,11.37-7.81,18.5v39.18h39.3c7.2,0,13.36-2.53,18.5-7.58,5.05-5.13,7.58-11.33,7.58-18.61v-39.18h-.01Z"/><path class="cls-2" d="M914.1,486.89h39.18c7.28,0,13.49-2.53,18.61-7.58,5.05-5.13,7.58-11.3,7.58-18.5v-39.3h-39.18c-7.12,0-13.29,2.6-18.5,7.81-5.13,5.14-7.7,11.26-7.7,18.38v39.18h.01ZM914.1,491.6v39.18c0,7.28,2.56,13.49,7.7,18.61,5.21,5.06,11.37,7.58,18.5,7.58h39.18v-39.18c0-7.12-2.53-13.29-7.58-18.5-5.13-5.13-11.33-7.7-18.61-7.7h-39.19ZM909.39,486.89v-39.18c0-7.05-2.53-13.17-7.58-18.38-5.21-5.21-11.37-7.81-18.5-7.81h-39.3v39.3c0,7.12,2.6,13.29,7.81,18.5,5.21,5.06,11.33,7.58,18.38,7.58h39.19ZM909.39,491.6h-39.18c-7.12,0-13.25,2.56-18.38,7.7-5.21,5.21-7.81,11.37-7.81,18.5v39.18h39.3c7.2,0,13.36-2.53,18.5-7.58,5.05-5.13,7.58-11.33,7.58-18.61v-39.18h-.01Z"/><path class="cls-1" d="M352.1,627.39h39.18c7.28,0,13.49-2.53,18.61-7.58,5.05-5.13,7.58-11.3,7.58-18.5v-39.3h-39.18c-7.12,0-13.29,2.6-18.5,7.81-5.13,5.14-7.7,11.26-7.7,18.38v39.18h.01ZM352.1,632.1v39.18c0,7.28,2.56,13.49,7.7,18.61,5.21,5.06,11.37,7.58,18.5,7.58h39.18v-39.18c0-7.12-2.53-13.29-7.58-18.5-5.13-5.13-11.33-7.7-18.61-7.7h-39.19ZM347.39,627.39v-39.18c0-7.05-2.53-13.17-7.58-18.38-5.21-5.21-11.37-7.81-18.5-7.81h-39.3v39.3c0,7.12,2.6,13.29,7.81,18.5,5.21,5.06,11.33,7.58,18.38,7.58h39.19ZM347.39,632.1h-39.18c-7.12,0-13.25,2.56-18.38,7.7-5.21,5.21-7.81,11.37-7.81,18.5v39.18h39.3c7.2,0,13.36-2.53,18.5-7.58,5.05-5.13,7.58-11.33,7.58-18.61v-39.18h-.01Z"/><path class="cls-3" d="M71.1,205.89h39.18c7.28,0,13.49-2.53,18.61-7.58,5.05-5.13,7.58-11.3,7.58-18.5v-39.3h-39.18c-7.12,0-13.29,2.6-18.5,7.81-5.13,5.14-7.7,11.26-7.7,18.38v39.18h.01ZM71.1,210.6v39.18c0,7.28,2.56,13.49,7.7,18.61,5.21,5.06,11.37,7.58,18.5,7.58h39.18v-39.18c0-7.12-2.53-13.29-7.58-18.5-5.13-5.13-11.33-7.7-18.61-7.7h-39.19ZM66.38,205.89v-39.18c0-7.05-2.53-13.17-7.58-18.38-5.21-5.21-11.37-7.81-18.5-7.81H1v39.3c0,7.12,2.6,13.29,7.81,18.5,5.21,5.06,11.33,7.58,18.38,7.58h39.19ZM66.38,210.6H27.21c-7.12,0-13.25,2.56-18.38,7.7-5.21,5.21-7.81,11.37-7.81,18.5v39.18h39.3c7.2,0,13.36-2.53,18.5-7.58,5.05-5.13,7.58-11.33,7.58-18.61v-39.18h-.01Z"/></g></svg>