<?xml version="1.0" encoding="UTF-8"?><svg id="Layer_2" xmlns="http://www.w3.org/2000/svg" width="1115.89" height="1255.89" viewBox="0 0 1115.89 1255.89"><defs><style>.cls-1{fill:#fff;}.cls-2{fill:#b796ff;}.cls-3{fill:none;stroke:#fff;stroke-width:2px;}</style></defs><g id="Layer_1-2"><path class="cls-1" d="M630.31,765.58h39.3c7.3,0,13.53-2.53,18.67-7.6,5.07-5.14,7.6-11.33,7.6-18.56v-39.42h-39.3c-7.14,0-13.33,2.61-18.56,7.84-5.14,5.15-7.73,11.29-7.73,18.43v39.3h.01ZM630.31,770.31v39.3c0,7.3,2.57,13.53,7.73,18.67,5.23,5.07,11.41,7.6,18.56,7.6h39.3v-39.3c0-7.14-2.54-13.33-7.6-18.56-5.14-5.14-11.37-7.73-18.67-7.73h-39.31ZM625.58,765.58v-39.3c0-7.07-2.53-13.21-7.6-18.43-5.23-5.23-11.41-7.84-18.56-7.84h-39.42v39.42c0,7.14,2.61,13.33,7.84,18.56,5.23,5.07,11.37,7.6,18.43,7.6h39.31ZM625.58,770.31h-39.3c-7.14,0-13.29,2.57-18.44,7.73-5.23,5.23-7.83,11.41-7.83,18.56v39.3h39.42c7.23,0,13.4-2.53,18.56-7.6,5.07-5.14,7.6-11.37,7.6-18.67v-39.3h-.01Z"/><path class="cls-2" d="M630.31,345.58h39.3c7.3,0,13.53-2.53,18.67-7.6,5.07-5.14,7.6-11.33,7.6-18.56v-39.42h-39.3c-7.14,0-13.33,2.61-18.56,7.84-5.14,5.15-7.73,11.29-7.73,18.43v39.3h.01ZM630.31,350.31v39.3c0,7.3,2.57,13.53,7.73,18.67,5.23,5.07,11.41,7.6,18.56,7.6h39.3v-39.3c0-7.14-2.54-13.33-7.6-18.56-5.14-5.14-11.37-7.73-18.67-7.73h-39.31ZM625.58,345.58v-39.3c0-7.07-2.53-13.21-7.6-18.43-5.23-5.23-11.41-7.84-18.56-7.84h-39.42v39.42c0,7.14,2.61,13.33,7.84,18.56,5.23,5.07,11.37,7.6,18.43,7.6h39.31ZM625.58,350.31h-39.3c-7.14,0-13.29,2.57-18.44,7.73-5.23,5.23-7.83,11.41-7.83,18.56v39.3h39.42c7.23,0,13.4-2.53,18.56-7.6,5.07-5.14,7.6-11.37,7.6-18.67v-39.3h-.01Z"/><path class="cls-2" d="M1050.31,763.58h39.3c7.3,0,13.53-2.53,18.67-7.6,5.07-5.14,7.6-11.33,7.6-18.56v-39.42h-39.3c-7.14,0-13.33,2.61-18.56,7.84-5.14,5.15-7.73,11.29-7.73,18.43v39.3h.01ZM1050.31,768.31v39.3c0,7.3,2.57,13.53,7.73,18.67,5.23,5.07,11.41,7.6,18.56,7.6h39.3v-39.3c0-7.14-2.54-13.33-7.6-18.56-5.14-5.14-11.37-7.73-18.67-7.73h-39.31ZM1045.58,763.58v-39.3c0-7.07-2.53-13.21-7.6-18.43-5.23-5.23-11.41-7.84-18.56-7.84h-39.42v39.42c0,7.14,2.61,13.33,7.84,18.56,5.23,5.07,11.37,7.6,18.43,7.6h39.31ZM1045.58,768.31h-39.3c-7.14,0-13.29,2.57-18.44,7.73-5.23,5.23-7.83,11.41-7.83,18.56v39.3h39.42c7.23,0,13.4-2.53,18.56-7.6,5.07-5.14,7.6-11.37,7.6-18.67v-39.3h-.01Z"/><path class="cls-1" d="M1050.31,485.58h39.3c7.3,0,13.53-2.53,18.67-7.6,5.07-5.14,7.6-11.33,7.6-18.56v-39.42h-39.3c-7.14,0-13.33,2.61-18.56,7.84-5.14,5.15-7.73,11.29-7.73,18.43v39.3h.01ZM1050.31,490.31v39.3c0,7.3,2.57,13.53,7.73,18.67,5.23,5.07,11.41,7.6,18.56,7.6h39.3v-39.3c0-7.14-2.54-13.33-7.6-18.56-5.14-5.14-11.37-7.73-18.67-7.73h-39.31ZM1045.58,485.58v-39.3c0-7.07-2.53-13.21-7.6-18.43-5.23-5.23-11.41-7.84-18.56-7.84h-39.42v39.42c0,7.14,2.61,13.33,7.84,18.56,5.23,5.07,11.37,7.6,18.43,7.6h39.31ZM1045.58,490.31h-39.3c-7.14,0-13.29,2.57-18.44,7.73-5.23,5.23-7.83,11.41-7.83,18.56v39.3h39.42c7.23,0,13.4-2.53,18.56-7.6,5.07-5.14,7.6-11.37,7.6-18.67v-39.3h-.01Z"/><path class="cls-2" d="M350.31,765.58h39.3c7.3,0,13.53-2.53,18.67-7.6,5.07-5.14,7.6-11.33,7.6-18.56v-39.42h-39.3c-7.14,0-13.33,2.61-18.56,7.84-5.14,5.15-7.73,11.29-7.73,18.43v39.3h.01ZM350.31,770.31v39.3c0,7.3,2.57,13.53,7.73,18.67,5.23,5.07,11.41,7.6,18.56,7.6h39.3v-39.3c0-7.14-2.54-13.33-7.6-18.56-5.14-5.14-11.37-7.73-18.67-7.73h-39.31ZM345.58,765.58v-39.3c0-7.07-2.53-13.21-7.6-18.43-5.23-5.23-11.41-7.84-18.56-7.84h-39.42v39.42c0,7.14,2.61,13.33,7.84,18.56,5.23,5.07,11.37,7.6,18.43,7.6h39.31ZM345.58,770.31h-39.3c-7.14,0-13.29,2.57-18.44,7.73-5.23,5.23-7.83,11.41-7.83,18.56v39.3h39.42c7.23,0,13.4-2.53,18.56-7.6,5.07-5.14,7.6-11.37,7.6-18.67v-39.3h-.01Z"/><path class="cls-2" d="M210.31,625.58h39.3c7.3,0,13.53-2.53,18.67-7.6,5.07-5.14,7.6-11.33,7.6-18.56v-39.42h-39.3c-7.14,0-13.33,2.61-18.56,7.84-5.14,5.15-7.73,11.29-7.73,18.43v39.3h.01ZM210.31,630.31v39.3c0,7.3,2.57,13.53,7.73,18.67,5.23,5.07,11.41,7.6,18.56,7.6h39.3v-39.3c0-7.14-2.54-13.33-7.6-18.56-5.14-5.14-11.37-7.73-18.67-7.73h-39.31ZM205.58,625.58v-39.3c0-7.07-2.53-13.21-7.6-18.43-5.23-5.23-11.41-7.84-18.56-7.84h-39.42v39.42c0,7.14,2.61,13.33,7.84,18.56,5.23,5.07,11.37,7.6,18.43,7.6h39.31ZM205.58,630.31h-39.3c-7.14,0-13.29,2.57-18.44,7.73-5.23,5.23-7.83,11.41-7.83,18.56v39.3h39.42c7.23,0,13.4-2.53,18.56-7.6,5.07-5.14,7.6-11.37,7.6-18.67v-39.3h-.01Z"/><path class="cls-1" d="M210.31,65.58h39.3c7.3,0,13.53-2.53,18.67-7.6,5.07-5.14,7.6-11.33,7.6-18.56V0h-39.3c-7.14,0-13.33,2.61-18.56,7.84-5.14,5.15-7.73,11.29-7.73,18.43v39.3h.01ZM210.31,70.31v39.3c0,7.3,2.57,13.53,7.73,18.67,5.23,5.07,11.41,7.6,18.56,7.6h39.3v-39.3c0-7.14-2.54-13.33-7.6-18.56-5.14-5.14-11.37-7.73-18.67-7.73h-39.31ZM205.58,65.58V26.28c0-7.07-2.53-13.21-7.6-18.43C192.75,2.62,186.57.01,179.42.01h-39.42v39.42c0,7.14,2.61,13.33,7.84,18.56,5.23,5.07,11.37,7.6,18.43,7.6h39.31ZM205.58,70.31h-39.3c-7.14,0-13.29,2.57-18.44,7.73-5.23,5.23-7.83,11.41-7.83,18.56v39.3h39.42c7.23,0,13.4-2.53,18.56-7.6,5.07-5.14,7.6-11.37,7.6-18.67v-39.3h-.01Z"/><path class="cls-2" d="M770.31,905.58h39.3c7.3,0,13.53-2.53,18.67-7.6,5.07-5.14,7.6-11.33,7.6-18.56v-39.42h-39.3c-7.14,0-13.33,2.61-18.56,7.84-5.14,5.15-7.73,11.29-7.73,18.43v39.3h.01ZM770.31,910.31v39.3c0,7.3,2.57,13.53,7.73,18.67,5.23,5.07,11.41,7.6,18.56,7.6h39.3v-39.3c0-7.14-2.54-13.33-7.6-18.56-5.14-5.14-11.37-7.73-18.67-7.73h-39.31ZM765.58,905.58v-39.3c0-7.07-2.53-13.21-7.6-18.43-5.23-5.23-11.41-7.84-18.56-7.84h-39.42v39.42c0,7.14,2.61,13.33,7.84,18.56,5.23,5.07,11.37,7.6,18.43,7.6h39.31ZM765.58,910.31h-39.3c-7.14,0-13.29,2.57-18.44,7.73-5.23,5.23-7.83,11.41-7.83,18.56v39.3h39.42c7.23,0,13.4-2.53,18.56-7.6,5.07-5.14,7.6-11.37,7.6-18.67v-39.3h-.01Z"/><path class="cls-2" d="M770.31,625.58h39.3c7.3,0,13.53-2.53,18.67-7.6,5.07-5.14,7.6-11.33,7.6-18.56v-39.42h-39.3c-7.14,0-13.33,2.61-18.56,7.84-5.14,5.15-7.73,11.29-7.73,18.43v39.3h.01ZM770.31,630.31v39.3c0,7.3,2.57,13.53,7.73,18.67,5.23,5.07,11.41,7.6,18.56,7.6h39.3v-39.3c0-7.14-2.54-13.33-7.6-18.56-5.14-5.14-11.37-7.73-18.67-7.73h-39.31ZM765.58,625.58v-39.3c0-7.07-2.53-13.21-7.6-18.43-5.23-5.23-11.41-7.84-18.56-7.84h-39.42v39.42c0,7.14,2.61,13.33,7.84,18.56,5.23,5.07,11.37,7.6,18.43,7.6h39.31ZM765.58,630.31h-39.3c-7.14,0-13.29,2.57-18.44,7.73-5.23,5.23-7.83,11.41-7.83,18.56v39.3h39.42c7.23,0,13.4-2.53,18.56-7.6,5.07-5.14,7.6-11.37,7.6-18.67v-39.3h-.01Z"/><path class="cls-3" d="M770.31,485.58h39.3c7.3,0,13.53-2.53,18.67-7.6,5.07-5.14,7.6-11.33,7.6-18.56v-39.42h-39.3c-7.14,0-13.33,2.61-18.56,7.84-5.14,5.15-7.73,11.29-7.73,18.43v39.3h.01ZM770.31,490.31v39.3c0,7.3,2.57,13.53,7.73,18.67,5.23,5.07,11.41,7.6,18.56,7.6h39.3v-39.3c0-7.14-2.54-13.33-7.6-18.56-5.14-5.14-11.37-7.73-18.67-7.73h-39.31ZM765.58,485.58v-39.3c0-7.07-2.53-13.21-7.6-18.43-5.23-5.23-11.41-7.84-18.56-7.84h-39.42v39.42c0,7.14,2.61,13.33,7.84,18.56,5.23,5.07,11.37,7.6,18.43,7.6h39.31ZM765.58,490.31h-39.3c-7.14,0-13.29,2.57-18.44,7.73-5.23,5.23-7.83,11.41-7.83,18.56v39.3h39.42c7.23,0,13.4-2.53,18.56-7.6,5.07-5.14,7.6-11.37,7.6-18.67v-39.3h-.01Z"/><path class="cls-1" d="M911.31,205.58h39.3c7.3,0,13.53-2.53,18.67-7.6,5.07-5.14,7.6-11.33,7.6-18.56v-39.42h-39.3c-7.14,0-13.33,2.61-18.56,7.84-5.14,5.15-7.73,11.29-7.73,18.43v39.3h.01ZM911.31,210.31v39.3c0,7.3,2.57,13.53,7.73,18.67,5.23,5.07,11.41,7.6,18.56,7.6h39.3v-39.3c0-7.14-2.54-13.33-7.6-18.56-5.14-5.14-11.37-7.73-18.67-7.73h-39.31ZM906.58,205.58v-39.3c0-7.07-2.53-13.21-7.6-18.43-5.23-5.23-11.41-7.84-18.56-7.84h-39.42v39.42c0,7.14,2.61,13.33,7.84,18.56,5.23,5.07,11.37,7.6,18.43,7.6h39.31ZM906.58,210.31h-39.3c-7.14,0-13.29,2.57-18.44,7.73-5.23,5.23-7.83,11.41-7.83,18.56v39.3h39.42c7.23,0,13.4-2.53,18.56-7.6,5.07-5.14,7.6-11.37,7.6-18.67v-39.3h-.01Z"/><path class="cls-3" d="M770.31,1045.58h39.3c7.3,0,13.53-2.53,18.67-7.6,5.07-5.14,7.6-11.33,7.6-18.56v-39.42h-39.3c-7.14,0-13.33,2.61-18.56,7.84-5.14,5.15-7.73,11.29-7.73,18.43v39.3h.01ZM770.31,1050.31v39.3c0,7.3,2.57,13.53,7.73,18.67,5.23,5.07,11.41,7.6,18.56,7.6h39.3v-39.3c0-7.14-2.54-13.33-7.6-18.56-5.14-5.14-11.37-7.73-18.67-7.73h-39.31ZM765.58,1045.58v-39.3c0-7.07-2.53-13.21-7.6-18.43-5.23-5.23-11.41-7.84-18.56-7.84h-39.42v39.42c0,7.14,2.61,13.33,7.84,18.56,5.23,5.07,11.37,7.6,18.43,7.6h39.31ZM765.58,1050.31h-39.3c-7.14,0-13.29,2.57-18.44,7.73-5.23,5.23-7.83,11.41-7.83,18.56v39.3h39.42c7.23,0,13.4-2.53,18.56-7.6,5.07-5.14,7.6-11.37,7.6-18.67v-39.3h-.01Z"/><path class="cls-3" d="M350.31,1045.58h39.3c7.3,0,13.53-2.53,18.67-7.6,5.07-5.14,7.6-11.33,7.6-18.56v-39.42h-39.3c-7.14,0-13.33,2.61-18.56,7.84-5.14,5.15-7.73,11.29-7.73,18.43v39.3h.01ZM350.31,1050.31v39.3c0,7.3,2.57,13.53,7.73,18.67,5.23,5.07,11.41,7.6,18.56,7.6h39.3v-39.3c0-7.14-2.54-13.33-7.6-18.56-5.14-5.14-11.37-7.73-18.67-7.73h-39.31ZM345.58,1045.58v-39.3c0-7.07-2.53-13.21-7.6-18.43-5.23-5.23-11.41-7.84-18.56-7.84h-39.42v39.42c0,7.14,2.61,13.33,7.84,18.56,5.23,5.07,11.37,7.6,18.43,7.6h39.31ZM345.58,1050.31h-39.3c-7.14,0-13.29,2.57-18.44,7.73-5.23,5.23-7.83,11.41-7.83,18.56v39.3h39.42c7.23,0,13.4-2.53,18.56-7.6,5.07-5.14,7.6-11.37,7.6-18.67v-39.3h-.01Z"/><path class="cls-1" d="M490.31,905.58h39.3c7.3,0,13.53-2.53,18.67-7.6,5.07-5.14,7.6-11.33,7.6-18.56v-39.42h-39.3c-7.14,0-13.33,2.61-18.56,7.84-5.14,5.15-7.73,11.29-7.73,18.43v39.3h.01ZM490.31,910.31v39.3c0,7.3,2.57,13.53,7.73,18.67,5.23,5.07,11.41,7.6,18.56,7.6h39.3v-39.3c0-7.14-2.54-13.33-7.6-18.56-5.14-5.14-11.37-7.73-18.67-7.73h-39.31ZM485.58,905.58v-39.3c0-7.07-2.53-13.21-7.6-18.43-5.23-5.23-11.41-7.84-18.56-7.84h-39.42v39.42c0,7.14,2.61,13.33,7.84,18.56,5.23,5.07,11.37,7.6,18.43,7.6h39.31ZM485.58,910.31h-39.3c-7.14,0-13.29,2.57-18.44,7.73-5.23,5.23-7.83,11.41-7.83,18.56v39.3h39.42c7.23,0,13.4-2.53,18.56-7.6,5.07-5.14,7.6-11.37,7.6-18.67v-39.3h-.01Z"/><path class="cls-2" d="M490.31,485.58h39.3c7.3,0,13.53-2.53,18.67-7.6,5.07-5.14,7.6-11.33,7.6-18.56v-39.42h-39.3c-7.14,0-13.33,2.61-18.56,7.84-5.14,5.15-7.73,11.29-7.73,18.43v39.3h.01ZM490.31,490.31v39.3c0,7.3,2.57,13.53,7.73,18.67,5.23,5.07,11.41,7.6,18.56,7.6h39.3v-39.3c0-7.14-2.54-13.33-7.6-18.56-5.14-5.14-11.37-7.73-18.67-7.73h-39.31ZM485.58,485.58v-39.3c0-7.07-2.53-13.21-7.6-18.43-5.23-5.23-11.41-7.84-18.56-7.84h-39.42v39.42c0,7.14,2.61,13.33,7.84,18.56,5.23,5.07,11.37,7.6,18.43,7.6h39.31ZM485.58,490.31h-39.3c-7.14,0-13.29,2.57-18.44,7.73-5.23,5.23-7.83,11.41-7.83,18.56v39.3h39.42c7.23,0,13.4-2.53,18.56-7.6,5.07-5.14,7.6-11.37,7.6-18.67v-39.3h-.01Z"/><path class="cls-3" d="M490.31,205.58h39.3c7.3,0,13.53-2.53,18.67-7.6,5.07-5.14,7.6-11.33,7.6-18.56v-39.42h-39.3c-7.14,0-13.33,2.61-18.56,7.84-5.14,5.15-7.73,11.29-7.73,18.43v39.3h.01ZM490.31,210.31v39.3c0,7.3,2.57,13.53,7.73,18.67,5.23,5.07,11.41,7.6,18.56,7.6h39.3v-39.3c0-7.14-2.54-13.33-7.6-18.56-5.14-5.14-11.37-7.73-18.67-7.73h-39.31ZM485.58,205.58v-39.3c0-7.07-2.53-13.21-7.6-18.43-5.23-5.23-11.41-7.84-18.56-7.84h-39.42v39.42c0,7.14,2.61,13.33,7.84,18.56,5.23,5.07,11.37,7.6,18.43,7.6h39.31ZM485.58,210.31h-39.3c-7.14,0-13.29,2.57-18.44,7.73-5.23,5.23-7.83,11.41-7.83,18.56v39.3h39.42c7.23,0,13.4-2.53,18.56-7.6,5.07-5.14,7.6-11.37,7.6-18.67v-39.3h-.01Z"/><path class="cls-1" d="M70.31,905.58h39.3c7.3,0,13.53-2.53,18.67-7.6,5.07-5.14,7.6-11.33,7.6-18.56v-39.42h-39.3c-7.14,0-13.33,2.61-18.56,7.84-5.14,5.15-7.73,11.29-7.73,18.43v39.3h.01ZM70.31,910.31v39.3c0,7.3,2.57,13.53,7.73,18.67,5.23,5.07,11.41,7.6,18.56,7.6h39.3v-39.3c0-7.14-2.54-13.33-7.6-18.56-5.14-5.14-11.37-7.73-18.67-7.73h-39.31ZM65.58,905.58v-39.3c0-7.07-2.53-13.21-7.6-18.43-5.23-5.23-11.41-7.84-18.56-7.84H0v39.42c0,7.14,2.61,13.33,7.84,18.56,5.23,5.07,11.37,7.6,18.43,7.6h39.31ZM65.58,910.31H26.28c-7.14,0-13.29,2.57-18.44,7.73C2.62,923.26.01,929.44.01,936.59v39.3h39.42c7.23,0,13.4-2.53,18.56-7.6,5.07-5.14,7.6-11.37,7.6-18.67v-39.3h-.01Z"/><path class="cls-1" d="M490.31,1185.58h39.3c7.3,0,13.53-2.53,18.67-7.6,5.07-5.14,7.6-11.33,7.6-18.56v-39.42h-39.3c-7.14,0-13.33,2.61-18.56,7.84-5.14,5.15-7.73,11.29-7.73,18.43v39.3h.01ZM490.31,1190.31v39.3c0,7.3,2.57,13.53,7.73,18.67,5.23,5.07,11.41,7.6,18.56,7.6h39.3v-39.3c0-7.14-2.54-13.33-7.6-18.56-5.14-5.14-11.37-7.73-18.67-7.73h-39.31ZM485.58,1185.58v-39.3c0-7.07-2.53-13.21-7.6-18.43-5.23-5.23-11.41-7.84-18.56-7.84h-39.42v39.42c0,7.14,2.61,13.33,7.84,18.56,5.23,5.07,11.37,7.6,18.43,7.6h39.31ZM485.58,1190.31h-39.3c-7.14,0-13.29,2.57-18.44,7.73-5.23,5.23-7.83,11.41-7.83,18.56v39.3h39.42c7.23,0,13.4-2.53,18.56-7.6,5.07-5.14,7.6-11.37,7.6-18.67v-39.3h-.01Z"/></g></svg>