<?xml version="1.0" encoding="UTF-8"?><svg id="Layer_2" xmlns="http://www.w3.org/2000/svg" width="1117.89" height="1260.89" viewBox="0 0 1117.89 1260.89"><defs><style>.cls-1{fill:#fff;}.cls-2{fill:#b796ff;}.cls-3{fill:none;stroke:#fff;stroke-width:2px;}</style></defs><g id="Layer_1-2"><path class="cls-2" d="M211.31,770.58h39.3c7.3,0,13.53-2.53,18.67-7.6,5.07-5.14,7.6-11.33,7.6-18.56v-39.42h-39.3c-7.14,0-13.33,2.61-18.56,7.84-5.14,5.15-7.73,11.29-7.73,18.43v39.3h.01ZM211.31,775.31v39.3c0,7.3,2.57,13.53,7.73,18.67,5.23,5.07,11.41,7.6,18.56,7.6h39.3v-39.3c0-7.14-2.54-13.33-7.6-18.56-5.14-5.14-11.37-7.73-18.67-7.73h-39.31ZM206.58,770.58v-39.3c0-7.07-2.53-13.21-7.6-18.43-5.23-5.23-11.41-7.84-18.56-7.84h-39.42v39.42c0,7.14,2.61,13.33,7.84,18.56,5.23,5.07,11.37,7.6,18.43,7.6h39.31ZM206.58,775.31h-39.3c-7.14,0-13.29,2.57-18.44,7.73-5.23,5.23-7.83,11.41-7.83,18.56v39.3h39.42c7.23,0,13.4-2.53,18.56-7.6,5.07-5.14,7.6-11.37,7.6-18.67v-39.3h-.01Z"/><path class="cls-1" d="M487.31,770.58h39.3c7.3,0,13.53-2.53,18.67-7.6,5.07-5.14,7.6-11.33,7.6-18.56v-39.42h-39.3c-7.14,0-13.33,2.61-18.56,7.84-5.14,5.15-7.73,11.29-7.73,18.43v39.3h.01ZM487.31,775.31v39.3c0,7.3,2.57,13.53,7.73,18.67,5.23,5.07,11.41,7.6,18.56,7.6h39.3v-39.3c0-7.14-2.54-13.33-7.6-18.56-5.14-5.14-11.37-7.73-18.67-7.73h-39.31ZM482.58,770.58v-39.3c0-7.07-2.53-13.21-7.6-18.43-5.23-5.23-11.41-7.84-18.56-7.84h-39.42v39.42c0,7.14,2.61,13.33,7.84,18.56,5.23,5.07,11.37,7.6,18.43,7.6h39.31ZM482.58,775.31h-39.3c-7.14,0-13.29,2.57-18.44,7.73-5.23,5.23-7.83,11.41-7.83,18.56v39.3h39.42c7.23,0,13.4-2.53,18.56-7.6,5.07-5.14,7.6-11.37,7.6-18.67v-39.3h-.01Z"/><path class="cls-2" d="M630.31,770.58h39.3c7.3,0,13.53-2.53,18.67-7.6,5.07-5.14,7.6-11.33,7.6-18.56v-39.42h-39.3c-7.14,0-13.33,2.61-18.56,7.84-5.14,5.15-7.73,11.29-7.73,18.43v39.3h.01ZM630.31,775.31v39.3c0,7.3,2.57,13.53,7.73,18.67,5.23,5.07,11.41,7.6,18.56,7.6h39.3v-39.3c0-7.14-2.54-13.33-7.6-18.56-5.14-5.14-11.37-7.73-18.67-7.73h-39.31ZM625.58,770.58v-39.3c0-7.07-2.53-13.21-7.6-18.43-5.23-5.23-11.41-7.84-18.56-7.84h-39.42v39.42c0,7.14,2.61,13.33,7.84,18.56,5.23,5.07,11.37,7.6,18.43,7.6h39.31ZM625.58,775.31h-39.3c-7.14,0-13.29,2.57-18.44,7.73-5.23,5.23-7.83,11.41-7.83,18.56v39.3h39.42c7.23,0,13.4-2.53,18.56-7.6,5.07-5.14,7.6-11.37,7.6-18.67v-39.3h-.01Z"/><path class="cls-3" d="M490.31,490.58h39.3c7.3,0,13.53-2.53,18.67-7.6,5.07-5.14,7.6-11.33,7.6-18.56v-39.42h-39.3c-7.14,0-13.33,2.61-18.56,7.84-5.14,5.15-7.73,11.29-7.73,18.43v39.3h.01ZM490.31,495.31v39.3c0,7.3,2.57,13.53,7.73,18.67,5.23,5.07,11.41,7.6,18.56,7.6h39.3v-39.3c0-7.14-2.54-13.33-7.6-18.56-5.14-5.14-11.37-7.73-18.67-7.73h-39.31ZM485.58,490.58v-39.3c0-7.07-2.53-13.21-7.6-18.43-5.23-5.23-11.41-7.84-18.56-7.84h-39.42v39.42c0,7.14,2.61,13.33,7.84,18.56,5.23,5.07,11.37,7.6,18.43,7.6h39.31ZM485.58,495.31h-39.3c-7.14,0-13.29,2.57-18.44,7.73-5.23,5.23-7.83,11.41-7.83,18.56v39.3h39.42c7.23,0,13.4-2.53,18.56-7.6,5.07-5.14,7.6-11.37,7.6-18.67v-39.3h-.01Z"/><path class="cls-1" d="M630.31,490.58h39.3c7.3,0,13.53-2.53,18.67-7.6,5.07-5.14,7.6-11.33,7.6-18.56v-39.42h-39.3c-7.14,0-13.33,2.61-18.56,7.84-5.14,5.15-7.73,11.29-7.73,18.43v39.3h.01ZM630.31,495.31v39.3c0,7.3,2.57,13.53,7.73,18.67,5.23,5.07,11.41,7.6,18.56,7.6h39.3v-39.3c0-7.14-2.54-13.33-7.6-18.56-5.14-5.14-11.37-7.73-18.67-7.73h-39.31ZM625.58,490.58v-39.3c0-7.07-2.53-13.21-7.6-18.43-5.23-5.23-11.41-7.84-18.56-7.84h-39.42v39.42c0,7.14,2.61,13.33,7.84,18.56,5.23,5.07,11.37,7.6,18.43,7.6h39.31ZM625.58,495.31h-39.3c-7.14,0-13.29,2.57-18.44,7.73-5.23,5.23-7.83,11.41-7.83,18.56v39.3h39.42c7.23,0,13.4-2.53,18.56-7.6,5.07-5.14,7.6-11.37,7.6-18.67v-39.3h-.01Z"/><path class="cls-2" d="M630.31,349.58h39.3c7.3,0,13.53-2.53,18.67-7.6,5.07-5.14,7.6-11.33,7.6-18.56v-39.42h-39.3c-7.14,0-13.33,2.61-18.56,7.84-5.14,5.15-7.73,11.29-7.73,18.43v39.3h.01ZM630.31,354.31v39.3c0,7.3,2.57,13.53,7.73,18.67,5.23,5.07,11.41,7.6,18.56,7.6h39.3v-39.3c0-7.14-2.54-13.33-7.6-18.56-5.14-5.14-11.37-7.73-18.67-7.73h-39.31ZM625.58,349.58v-39.3c0-7.07-2.53-13.21-7.6-18.43-5.23-5.23-11.41-7.84-18.56-7.84h-39.42v39.42c0,7.14,2.61,13.33,7.84,18.56,5.23,5.07,11.37,7.6,18.43,7.6h39.31ZM625.58,354.31h-39.3c-7.14,0-13.29,2.57-18.44,7.73-5.23,5.23-7.83,11.41-7.83,18.56v39.3h39.42c7.23,0,13.4-2.53,18.56-7.6,5.07-5.14,7.6-11.37,7.6-18.67v-39.3h-.01Z"/><path class="cls-3" d="M1051.31,490.58h39.3c7.3,0,13.53-2.53,18.67-7.6,5.07-5.14,7.6-11.33,7.6-18.56v-39.42h-39.3c-7.14,0-13.33,2.61-18.56,7.84-5.14,5.15-7.73,11.29-7.73,18.43v39.3h.01ZM1051.31,495.31v39.3c0,7.3,2.57,13.53,7.73,18.67,5.23,5.07,11.41,7.6,18.56,7.6h39.3v-39.3c0-7.14-2.54-13.33-7.6-18.56-5.14-5.14-11.37-7.73-18.67-7.73h-39.31ZM1046.58,490.58v-39.3c0-7.07-2.53-13.21-7.6-18.43-5.23-5.23-11.41-7.84-18.56-7.84h-39.42v39.42c0,7.14,2.61,13.33,7.84,18.56,5.23,5.07,11.37,7.6,18.43,7.6h39.31ZM1046.58,495.31h-39.3c-7.14,0-13.29,2.57-18.44,7.73-5.23,5.23-7.83,11.41-7.83,18.56v39.3h39.42c7.23,0,13.4-2.53,18.56-7.6,5.07-5.14,7.6-11.37,7.6-18.67v-39.3h-.01Z"/><path class="cls-1" d="M911.31,208.58h39.3c7.3,0,13.53-2.53,18.67-7.6,5.07-5.14,7.6-11.33,7.6-18.56v-39.42h-39.3c-7.14,0-13.33,2.61-18.56,7.84-5.14,5.15-7.73,11.29-7.73,18.43v39.3h.01ZM911.31,213.31v39.3c0,7.3,2.57,13.53,7.73,18.67,5.23,5.07,11.41,7.6,18.56,7.6h39.3v-39.3c0-7.14-2.54-13.33-7.6-18.56-5.14-5.14-11.37-7.73-18.67-7.73h-39.31ZM906.58,208.58v-39.3c0-7.07-2.53-13.21-7.6-18.43-5.23-5.23-11.41-7.84-18.56-7.84h-39.42v39.42c0,7.14,2.61,13.33,7.84,18.56,5.23,5.07,11.37,7.6,18.43,7.6h39.31ZM906.58,213.31h-39.3c-7.14,0-13.29,2.57-18.44,7.73-5.23,5.23-7.83,11.41-7.83,18.56v39.3h39.42c7.23,0,13.4-2.53,18.56-7.6,5.07-5.14,7.6-11.37,7.6-18.67v-39.3h-.01Z"/><path class="cls-3" d="M71.31,208.58h39.3c7.3,0,13.53-2.53,18.67-7.6,5.07-5.14,7.6-11.33,7.6-18.56v-39.42h-39.3c-7.14,0-13.33,2.61-18.56,7.84-5.14,5.15-7.73,11.29-7.73,18.43v39.3h.01ZM71.31,213.31v39.3c0,7.3,2.57,13.53,7.73,18.67,5.23,5.07,11.41,7.6,18.56,7.6h39.3v-39.3c0-7.14-2.54-13.33-7.6-18.56-5.14-5.14-11.37-7.73-18.67-7.73h-39.31ZM66.58,208.58v-39.3c0-7.07-2.53-13.21-7.6-18.43-5.23-5.23-11.41-7.84-18.56-7.84H1v39.42c0,7.14,2.61,13.33,7.84,18.56,5.23,5.07,11.37,7.6,18.43,7.6h39.31ZM66.58,213.31H27.28c-7.14,0-13.29,2.57-18.44,7.73-5.23,5.23-7.83,11.41-7.83,18.56v39.3h39.42c7.23,0,13.4-2.53,18.56-7.6,5.07-5.14,7.6-11.37,7.6-18.67v-39.3h-.01Z"/><path class="cls-2" d="M210.31,490.58h39.3c7.3,0,13.53-2.53,18.67-7.6,5.07-5.14,7.6-11.33,7.6-18.56v-39.42h-39.3c-7.14,0-13.33,2.61-18.56,7.84-5.14,5.15-7.73,11.29-7.73,18.43v39.3h.01ZM210.31,495.31v39.3c0,7.3,2.57,13.53,7.73,18.67,5.23,5.07,11.41,7.6,18.56,7.6h39.3v-39.3c0-7.14-2.54-13.33-7.6-18.56-5.14-5.14-11.37-7.73-18.67-7.73h-39.31ZM205.58,490.58v-39.3c0-7.07-2.53-13.21-7.6-18.43-5.23-5.23-11.41-7.84-18.56-7.84h-39.42v39.42c0,7.14,2.61,13.33,7.84,18.56,5.23,5.07,11.37,7.6,18.43,7.6h39.31ZM205.58,495.31h-39.3c-7.14,0-13.29,2.57-18.44,7.73-5.23,5.23-7.83,11.41-7.83,18.56v39.3h39.42c7.23,0,13.4-2.53,18.56-7.6,5.07-5.14,7.6-11.37,7.6-18.67v-39.3h-.01Z"/><path class="cls-1" d="M350.31,350.58h39.3c7.3,0,13.53-2.53,18.67-7.6,5.07-5.14,7.6-11.33,7.6-18.56v-39.42h-39.3c-7.14,0-13.33,2.61-18.56,7.84-5.14,5.15-7.73,11.29-7.73,18.43v39.3h.01ZM350.31,355.31v39.3c0,7.3,2.57,13.53,7.73,18.67,5.23,5.07,11.41,7.6,18.56,7.6h39.3v-39.3c0-7.14-2.54-13.33-7.6-18.56-5.14-5.14-11.37-7.73-18.67-7.73h-39.31ZM345.58,350.58v-39.3c0-7.07-2.53-13.21-7.6-18.43-5.23-5.23-11.41-7.84-18.56-7.84h-39.42v39.42c0,7.14,2.61,13.33,7.84,18.56,5.23,5.07,11.37,7.6,18.43,7.6h39.31ZM345.58,355.31h-39.3c-7.14,0-13.29,2.57-18.44,7.73-5.23,5.23-7.83,11.41-7.83,18.56v39.3h39.42c7.23,0,13.4-2.53,18.56-7.6,5.07-5.14,7.6-11.37,7.6-18.67v-39.3h-.01Z"/><path class="cls-2" d="M350.31,65.58h39.3c7.3,0,13.53-2.53,18.67-7.6,5.07-5.14,7.6-11.33,7.6-18.56V0h-39.3c-7.14,0-13.33,2.61-18.56,7.84-5.14,5.15-7.73,11.29-7.73,18.43v39.3h.01ZM350.31,70.31v39.3c0,7.3,2.57,13.53,7.73,18.67,5.23,5.07,11.41,7.6,18.56,7.6h39.3v-39.3c0-7.14-2.54-13.33-7.6-18.56-5.14-5.14-11.37-7.73-18.67-7.73h-39.31ZM345.58,65.58V26.28c0-7.07-2.53-13.21-7.6-18.43C332.75,2.62,326.57.01,319.42.01h-39.42v39.42c0,7.14,2.61,13.33,7.84,18.56,5.23,5.07,11.37,7.6,18.43,7.6h39.31ZM345.58,70.31h-39.3c-7.14,0-13.29,2.57-18.44,7.73-5.23,5.23-7.83,11.41-7.83,18.56v39.3h39.42c7.23,0,13.4-2.53,18.56-7.6,5.07-5.14,7.6-11.37,7.6-18.67v-39.3h-.01Z"/><path class="cls-2" d="M911.31,630.58h39.3c7.3,0,13.53-2.53,18.67-7.6,5.07-5.14,7.6-11.33,7.6-18.56v-39.42h-39.3c-7.14,0-13.33,2.61-18.56,7.84-5.14,5.15-7.73,11.29-7.73,18.43v39.3h.01ZM911.31,635.31v39.3c0,7.3,2.57,13.53,7.73,18.67,5.23,5.07,11.41,7.6,18.56,7.6h39.3v-39.3c0-7.14-2.54-13.33-7.6-18.56-5.14-5.14-11.37-7.73-18.67-7.73h-39.31ZM906.58,630.58v-39.3c0-7.07-2.53-13.21-7.6-18.43-5.23-5.23-11.41-7.84-18.56-7.84h-39.42v39.42c0,7.14,2.61,13.33,7.84,18.56,5.23,5.07,11.37,7.6,18.43,7.6h39.31ZM906.58,635.31h-39.3c-7.14,0-13.29,2.57-18.44,7.73-5.23,5.23-7.83,11.41-7.83,18.56v39.3h39.42c7.23,0,13.4-2.53,18.56-7.6,5.07-5.14,7.6-11.37,7.6-18.67v-39.3h-.01Z"/><path class="cls-1" d="M771.31,910.58h39.3c7.3,0,13.53-2.53,18.67-7.6,5.07-5.14,7.6-11.33,7.6-18.56v-39.42h-39.3c-7.14,0-13.33,2.61-18.56,7.84-5.14,5.15-7.73,11.29-7.73,18.43v39.3h.01ZM771.31,915.31v39.3c0,7.3,2.57,13.53,7.73,18.67,5.23,5.07,11.41,7.6,18.56,7.6h39.3v-39.3c0-7.14-2.54-13.33-7.6-18.56-5.14-5.14-11.37-7.73-18.67-7.73h-39.31ZM766.58,910.58v-39.3c0-7.07-2.53-13.21-7.6-18.43-5.23-5.23-11.41-7.84-18.56-7.84h-39.42v39.42c0,7.14,2.61,13.33,7.84,18.56,5.23,5.07,11.37,7.6,18.43,7.6h39.31ZM766.58,915.31h-39.3c-7.14,0-13.29,2.57-18.44,7.73-5.23,5.23-7.83,11.41-7.83,18.56v39.3h39.42c7.23,0,13.4-2.53,18.56-7.6,5.07-5.14,7.6-11.37,7.6-18.67v-39.3h-.01Z"/><path class="cls-1" d="M911.31,1190.58h39.3c7.3,0,13.53-2.53,18.67-7.6,5.07-5.14,7.6-11.33,7.6-18.56v-39.42h-39.3c-7.14,0-13.33,2.61-18.56,7.84-5.14,5.15-7.73,11.29-7.73,18.43v39.3h.01ZM911.31,1195.31v39.3c0,7.3,2.57,13.53,7.73,18.67,5.23,5.07,11.41,7.6,18.56,7.6h39.3v-39.3c0-7.14-2.54-13.33-7.6-18.56-5.14-5.14-11.37-7.73-18.67-7.73h-39.31ZM906.58,1190.58v-39.3c0-7.07-2.53-13.21-7.6-18.43-5.23-5.23-11.41-7.84-18.56-7.84h-39.42v39.42c0,7.14,2.61,13.33,7.84,18.56,5.23,5.07,11.37,7.6,18.43,7.6h39.31ZM906.58,1195.31h-39.3c-7.14,0-13.29,2.57-18.44,7.73-5.23,5.23-7.83,11.41-7.83,18.56v39.3h39.42c7.23,0,13.4-2.53,18.56-7.6,5.07-5.14,7.6-11.37,7.6-18.67v-39.3h-.01Z"/><path class="cls-2" d="M631.31,1050.58h39.3c7.3,0,13.53-2.53,18.67-7.6,5.07-5.14,7.6-11.33,7.6-18.56v-39.42h-39.3c-7.14,0-13.33,2.61-18.56,7.84-5.14,5.15-7.73,11.29-7.73,18.43v39.3h.01ZM631.31,1055.31v39.3c0,7.3,2.57,13.53,7.73,18.67,5.23,5.07,11.41,7.6,18.56,7.6h39.3v-39.3c0-7.14-2.54-13.33-7.6-18.56-5.14-5.14-11.37-7.73-18.67-7.73h-39.31ZM626.58,1050.58v-39.3c0-7.07-2.53-13.21-7.6-18.43-5.23-5.23-11.41-7.84-18.56-7.84h-39.42v39.42c0,7.14,2.61,13.33,7.84,18.56,5.23,5.07,11.37,7.6,18.43,7.6h39.31ZM626.58,1055.31h-39.3c-7.14,0-13.29,2.57-18.44,7.73-5.23,5.23-7.83,11.41-7.83,18.56v39.3h39.42c7.23,0,13.4-2.53,18.56-7.6,5.07-5.14,7.6-11.37,7.6-18.67v-39.3h-.01Z"/><path class="cls-1" d="M211.31,910.58h39.3c7.3,0,13.53-2.53,18.67-7.6,5.07-5.14,7.6-11.33,7.6-18.56v-39.42h-39.3c-7.14,0-13.33,2.61-18.56,7.84-5.14,5.15-7.73,11.29-7.73,18.43v39.3h.01ZM211.31,915.31v39.3c0,7.3,2.57,13.53,7.73,18.67,5.23,5.07,11.41,7.6,18.56,7.6h39.3v-39.3c0-7.14-2.54-13.33-7.6-18.56-5.14-5.14-11.37-7.73-18.67-7.73h-39.31ZM206.58,910.58v-39.3c0-7.07-2.53-13.21-7.6-18.43-5.23-5.23-11.41-7.84-18.56-7.84h-39.42v39.42c0,7.14,2.61,13.33,7.84,18.56,5.23,5.07,11.37,7.6,18.43,7.6h39.31ZM206.58,915.31h-39.3c-7.14,0-13.29,2.57-18.44,7.73-5.23,5.23-7.83,11.41-7.83,18.56v39.3h39.42c7.23,0,13.4-2.53,18.56-7.6,5.07-5.14,7.6-11.37,7.6-18.67v-39.3h-.01Z"/><path class="cls-3" d="M71.31,770.58h39.3c7.3,0,13.53-2.53,18.67-7.6,5.07-5.14,7.6-11.33,7.6-18.56v-39.42h-39.3c-7.14,0-13.33,2.61-18.56,7.84-5.14,5.15-7.73,11.29-7.73,18.43v39.3h.01ZM71.31,775.31v39.3c0,7.3,2.57,13.53,7.73,18.67,5.23,5.07,11.41,7.6,18.56,7.6h39.3v-39.3c0-7.14-2.54-13.33-7.6-18.56-5.14-5.14-11.37-7.73-18.67-7.73h-39.31ZM66.58,770.58v-39.3c0-7.07-2.53-13.21-7.6-18.43-5.23-5.23-11.41-7.84-18.56-7.84H1v39.42c0,7.14,2.61,13.33,7.84,18.56,5.23,5.07,11.37,7.6,18.43,7.6h39.31ZM66.58,775.31H27.28c-7.14,0-13.29,2.57-18.44,7.73-5.23,5.23-7.83,11.41-7.83,18.56v39.3h39.42c7.23,0,13.4-2.53,18.56-7.6,5.07-5.14,7.6-11.37,7.6-18.67v-39.3h-.01Z"/></g></svg>